<?xml version="1.0" encoding="UTF-8"?>
<svg id="_レイヤー_2" data-name="レイヤー 2" xmlns="http://www.w3.org/2000/svg" viewBox="0 0 792.44 165.11">
  <defs>
    <style>
      .cls-1 {
        fill: #eee;
      }
    </style>
  </defs>
  <g id="_レイヤー_1-2" data-name="レイヤー 1">
    <g>
      <path class="cls-1" d="M123.95,78.49c-1.05,1.18.16,1.14,1.01,1.33,12.39,2.75,9.79,11,4.95,19.88-8.02,14.72-22.21,25.82-37.76,31.74,1.9,7.34-7.4,13.41-13.17,16.31-15.06,7.57-32.48,3.21-47.5,10.13-2.71,1.25-10.45,7.06-12.4,7.22-5.59.47-14.86-20.86-16.16-25.6-8.89-32.29,3-64.21,29.27-83.96,22.7-17.06,52.4-18.69,77.75-30.04,13.54-6.06,23.92-14.23,33.97-25.04,4.38-2.58,7.56,6.23,8.31,9.39,6.26,26.2-8.03,50.27-26.24,67.65-.71.68-1.97.9-2.04.99ZM142.92,14.08c-.82-.87-5.24,4.37-6.09,5.09-26.62,22.69-58.75,23.34-88.6,36.82-31.97,14.44-43.62,45.98-36.64,79.59.52,2.51,6.05,17.93,7.35,18.74,1.56.98,8.23-4.35,10.31-5.45,12.85-6.78,24.96-5.29,38.58-7.52,2.92-.48,12.99-2.58,15.03-3.95.66-.44,1.13-.72,1.13-1.63,0-3.12-13.36-4.26-16.31-5.43-2.14-.85-10.36-6-8.2-8.84,2.67-3.5,6.85-.17,9.95.31,17.59,2.69,33.53-2.22,45.37-15.53,1.94-2.18,10.67-13.52,8.39-16.21-4.69-1.5-9.72.29-14.51.6-5.09.34-18.78,1.69-22.65-.39-.73-.39-2.19-1.69-2.03-2.56.94-1.26,2.14-2.53,3.53-3.29,6.91-3.74,16.99-5.53,24.43-9.47,10.55-5.58,18.64-14.78,24.3-25.19,5.97-10.99,8.36-23.25,6.66-35.71Z"/>
      <path class="cls-1" d="M534.79,76.44c3.01-.68,4.87-3.26,7.79-4.71,48.6-24.25,62.55,68.09,15.68,70.71-10.16.57-14.7-4.18-22.98-8.08l-1.38.21c-2.73,9.66-11.29,9.85-14.16.43l.11-92c.97-4.81,6.65-10.16,11.52-6.63.8.58,3.42,5.92,3.42,6.57v33.5ZM548.53,81.67c-4.29.74-10.4,4.4-13.57,7.43-.57,1.68-.63,28.26-.14,30.81.68,3.56,11.12,7.96,14.56,8.43,11.89,1.61,20.88-5.73,22.31-17.52,1.94-16.05-4.23-32.4-23.15-29.15Z"/>
      <path class="cls-1" d="M776.79,96.44c.53-13.72-7.26-16.35-19.39-14.89-6.48.78-13.72,8.28-18.04,1.83-6.55-9.77,14.08-15.37,21.06-15.81,13.62-.85,25.62,5.63,29.67,19.07,2.58,8.56,2.84,37.91,1.72,47.32-1.18,9.94-12.24,10.24-14.04.48l-1.39.08c-14.97,13.64-43.72,9.78-43-14.23.28-9.59,6.29-16.22,14.71-20.05,1.53-.7,10.27-3.81,11.19-3.81h17.5ZM777.79,108.44h-18.5c-.82,0-7.06,3.12-7.94,4.06-2.63,2.81-3.28,8.46-2.11,12,2.95,8.97,27.41,4.26,28.6-4.51.48-3.5-.44-7.9-.05-11.55Z"/>
      <path class="cls-1" d="M206.79,96.44c-1.03-13.5-7.69-16.42-20.39-14.89-5.4.65-8.87,3.79-13.9,4.76-10.43-7.3-2.34-13.5,6.34-16.32,26.6-8.65,42.89,6.21,43.04,32.96.02,2.86-1.13,5.33-1.13,7.95,0,5.32,1.03,24.09-.48,27.52-1.73,3.91-8.31,4.04-10.95,1-1.57-1.81-.68-5.35-3.05-5-1.69.25-7.04,4.96-9.94,6.07-29.66,11.33-47.66-24.98-20.43-39.43,1.84-.98,10.98-4.61,12.39-4.61h18.5ZM206.79,108.44h-17.5c-1.11,0-8.12,3.7-9.09,4.91-2.31,2.92-3.04,10.86-.42,13.6,5.29,5.53,25.96,1.49,27.06-6.96.46-3.53-.43-7.89-.05-11.55Z"/>
      <path class="cls-1" d="M642.79,96.44c.16-13.51-8.27-16.6-20.41-14.91-3.99.56-9.92,4.94-12.12,4.89-1.3-.03-5.53-3.97-6-5.02-1.89-4.16,4.62-8.61,7.84-10.15,18.99-9.11,42.76-1.14,44.73,21.65,1.23,14.33-.56,30.99-.55,45.52-4.31,6.22-12.35,3.35-12.49-3.98-4.29.42-6.08,4.06-10.71,5.78-11.2,4.15-27.51,2.62-32.49-10.06-5.33-13.55,1.79-24.83,14.24-30.2,1.47-.63,9.66-3.52,10.48-3.52h17.5ZM642.79,107.44c-9.69,1.44-27.59-1.98-28.07,12.48-.23,6.97,1.47,8.97,8.58,9.53,7.05.56,13.94-2.5,19.49-6.52v-15.5Z"/>
      <path class="cls-1" d="M446.52,68.62c3.49-.73,7.56,1.75,8.25,5.34,2.51,13.16-3.04,33.39,1.53,46.47,4.92,14.08,28.24,7.44,29.51-3.47,1.11-9.46-3-39.68,3.9-45.1,7.28-5.71,10.59,2.8,11.11,9.04,1.06,12.6,1.43,40.83-.01,53.06-.81,6.89-8.27,11.84-12.9,4.85-1.01-1.52-1.2-5.92-3.61-5.37-.64.15-7.1,5.92-10.81,7.2-17.63,6.12-32.13-7.61-33.69-24.73-.67-7.31-1.11-34.45.45-40.51.7-2.7,3.37-6.19,6.26-6.79Z"/>
      <path class="cls-1" d="M692.55,68.7c7.56-1.1,31.02,2.15,25.72,13.73-3.6,7.87-11.07.14-16.22-.75-6.18-1.07-15.79-.1-15.23,8.2.5,7.45,13.95,7.61,19.52,9.5,28.63,9.72,15.58,45.67-14.93,42.93-7.1-.64-29.77-8.2-18.56-17.31,5.02-4.08,9.2,1.56,14.12,2.75s18.73,2.28,20.6-4.02c4.3-14.47-16.65-13.17-25.32-18.27-18.05-10.61-8.04-34.1,10.29-36.77Z"/>
      <path class="cls-1" d="M397.57,68.72c6.38-.78,12.8-.03,18.6,2.84,5.3,2.62,9.54,7.99,4.14,12.89s-8.55-1.78-14.26-2.77c-4.23-.73-12.37-.57-14.52,3.99-5.4,11.44,12.77,11.42,19.53,14,29.55,11.23,12.33,49.7-22.49,41.49-6.22-1.47-18.26-7.03-13.22-14.67,4.56-6.9,11.93,1.29,18.89,2,5.35.55,14.33,1.14,16.63-4.47,5.76-14.08-14.03-13.2-22.6-17.55-20.6-10.46-11.09-35.27,9.31-37.75Z"/>
      <path class="cls-1" d="M343.79,71.44h17.5c3.36,0,5.19,9.89,1,12h-17.5v41.5c0,.66,3.21,3.22,4.52,3.47,5.21,1.03,14.33-3.77,16.28,2.74,3.21,10.72-13.8,11.69-20.84,9.82-24.92-6.63-12.02-39.5-16-57.48-19.16,2.36-17.35-15.38,1.05-12.05.02-5.58-1.61-20.51,6.57-20.99,3.22-.19,7.42,3.51,7.42,6.49v14.5Z"/>
      <path class="cls-1" d="M247.28,69.85c4.98-.18,8.18,5.92,8.56,10.04,1.1,11.9,1.11,37.12-.17,48.92-1,9.21-7.26,18.69-14.43,7.68-.57-16.47-2.43-33.08-1.49-49.59.18-3.15.97-12.86,2.49-14.51.68-.74,4.03-2.5,5.04-2.54Z"/>
      <path class="cls-1" d="M282.59,94.73c4.57-.51,18.44-1.1,22.26.14,4.8,1.56,5.56,10.21,1.5,12.62-1.56.93-11.23,1.82-14.02,1.98-6.09.34-19,1.96-21.13-5.01-2.31-7.57,5.98-9.13,11.38-9.74Z"/>
      <path class="cls-1" d="M246.55,35.61c7.09-1.17,14.66,9.19,7.64,16.73-12.17,13.08-25.49-13.77-7.64-16.73Z"/>
    </g>
  </g>
</svg>