<svg xmlns="http://www.w3.org/2000/svg" viewBox="0 0 83.13 96.83"><defs><style>.cls-1{fill:#d32f2f;}</style></defs><g id="レイヤー_2" data-name="レイヤー 2"><g id="Layer_1" data-name="Layer 1"><path class="cls-1" d="M82.57,87.78l-35-83.44A6,6,0,0,0,41.54,0c-2.73,0-4.84,1.36-6.08,4.34L18.74,44.28,0,46.45l16.13,4-.1.23L1.85,56.85l12.23-1.46L.62,87.53a6.45,6.45,0,0,0,5.71,9.3,6.52,6.52,0,0,0,5.95-4L19.35,75.5h0L23.7,64.84h0l3.84-9.35v0L41.78,20.71,56,56.07,63.83,75.5h0l3.29,8.23h0l3.65,9.12a6.44,6.44,0,0,0,6,4C81.46,96.83,84.43,92.36,82.57,87.78Z"/><path class="cls-1" d="M47.54,47a2.4,2.4,0,0,0-3.38,0L40,51.13,35.89,47a2.39,2.39,0,0,0-3.38,3.38l4.14,4.13-4.14,4.14A2.39,2.39,0,0,0,35.89,62L40,57.89,44.16,62a2.39,2.39,0,0,0,3.38-3.37L43.4,54.51l4.14-4.13A2.4,2.4,0,0,0,47.54,47Z"/></g></g></svg>