<?xml version="1.0" encoding="UTF-8"?><svg id="_レイヤー_2" xmlns="http://www.w3.org/2000/svg" viewBox="0 0 301.11 90.21"><defs><style>.cls-1{fill:#f2f2f2;}</style></defs><g id="Layer_1"><g><g id="YgTP19"><g><path class="cls-1" d="m205.22,65.25c-6.08,3.74-12.43,3.84-18.9,2.15-6.61-1.73-11.06-5.97-13.08-12.49-1.96-6.34-2.04-12.8.1-19.12,2.02-5.97,6.14-10.15,12.08-12.16,7.78-2.63,15.49-2.19,22.95,1.46,3.51,1.71,5.19,4.22,5.13,8.34-.2,12.91-.09,25.82-.09,38.74,0,10.31-6.05,15.78-15.17,17.41-5.79,1.04-11.6.91-17.21-1.05-1.79-.62-3.52-1.68-5-2.88-1.45-1.17-1.45-2.94-.72-4.62.79-1.81,1.57-2.02,3.3-1.05,5.85,3.29,12.05,4.27,18.6,2.67,4.77-1.16,7.56-4.27,7.97-9.15.23-2.66.04-5.35.04-8.25Zm.12-20.59c0-3.86-.04-7.71.02-11.57.02-1.13-.27-1.78-1.34-2.35-2.8-1.49-5.8-2.08-8.89-2.07-6.03.03-10.91,2.18-13.55,8-1.69,3.74-1.71,7.71-1.39,11.68.46,5.66,2.83,10.19,8.4,12.22,5.42,1.98,10.75,1.8,15.54-1.98.85-.67,1.26-1.4,1.24-2.54-.08-3.8-.03-7.6-.03-11.4Z"/><path class="cls-1" d="m21.24,7.36c5.3-.05,10.18.74,14.69,3.1,1.16.61,2.24,1.47,3.16,2.42,1.21,1.25,1.26,2.81.48,4.36-.95,1.88-1.75,2.06-3.57,1.03-6.71-3.79-13.77-5.21-21.25-2.74-3.4,1.12-5.46,3.6-5.88,7.24-.44,3.86,1.2,6.73,4.67,8.26,3.2,1.41,6.56,2.49,9.91,3.55,4.53,1.43,8.93,3.01,12.93,5.75,7.74,5.3,7.92,18.45,1.59,24.71-3.2,3.16-7.03,4.94-11.37,5.61-7.2,1.11-14.28.59-20.99-2.47-1.63-.74-3.17-1.92-4.41-3.22-2.16-2.26-1.26-5.69,1.66-6.85.38-.15,1.08.02,1.42.3,5.4,4.46,11.56,6.32,18.54,5.7,5.62-.5,9.7-3.41,10.95-8.08,1.2-4.5-.35-8.98-4.49-11.05-3.61-1.81-7.53-3.05-11.38-4.32-4.14-1.37-8.38-2.4-11.88-5.2C-2.17,28.91-1.22,15.86,7.82,10.54c4.24-2.5,8.85-3.29,13.42-3.17Z"/><path class="cls-1" d="m83.68,51.45c.92,7.28,7.38,12.69,15.26,13.02,5.44.23,10.41-1.03,14.8-4.24,2.95,1.44,3.48,4.25,1.22,6.5-2.36,2.35-5.41,3.33-8.56,3.89-6.71,1.19-13.27.62-19.46-2.36-5.25-2.53-8.7-6.77-10.34-12.34-2.09-7.11-2.16-14.23.79-21.15,3.51-8.23,11.64-13.15,20.6-12.74,6.11.28,11.5,2.1,15.59,6.9,3.46,4.06,4.86,8.86,4.78,14.12-.04,2.44-1.19,3.6-3.87,3.99-4.75.69-9.51,1.34-14.27,2-5.09.7-10.18,1.4-15.27,2.11-.43.06-.85.22-1.26.32Zm27-10.22c-.64-5.2-2.54-9.52-7.41-11.51-5.24-2.14-10.45-1.65-14.93,2.16-3.98,3.38-5.15,7.93-5.2,13.07,9.28-1.25,18.29-2.47,27.54-3.72Z"/><path class="cls-1" d="m153.32,41.13c0-1.36.08-2.53-.01-3.69-.36-4.69-2.68-7.33-7.3-8.33-5.56-1.2-10.75.22-15.82,2.33-2.84,1.18-3.2,1.13-4.24-.89-.94-1.81-.4-4.05,1.6-5.02,2.34-1.13,4.81-2.15,7.34-2.72,5.18-1.17,10.42-1.16,15.59.3,6.43,1.82,10.14,5.97,10.65,12.65.38,5.06.22,10.17.26,15.25.03,3.47-.1,6.94.04,10.4.13,3.31-1.43,5.41-4.27,6.72-5.01,2.31-10.28,3.3-15.81,3.09-4.52-.18-8.91-.83-12.84-3.26-4.59-2.83-6.18-7.16-5.9-12.32.28-5.19,2.95-8.75,7.64-10.9,4.64-2.13,9.65-2.22,14.58-2.77,2.77-.31,5.55-.56,8.5-.86Zm.06,6.28c-5.78.72-11.34,1.23-16.82,2.17-3.66.63-5.68,3.25-5.89,6.57-.21,3.39,1.49,6.12,4.97,7.3,5.62,1.91,11.21,1.41,16.66-.79.46-.18,1.02-.83,1.03-1.27.08-4.51.05-9.02.05-13.98Z"/><path class="cls-1" d="m256.04,42.83c0-5.92.04-11.85-.03-17.77-.01-1.28.41-1.86,1.65-1.95.61-.04,1.21-.22,1.82-.24,3.41-.12,4.63,1,4.64,4.38.03,11.29-.02,22.58.03,33.87.01,3.18-1.1,5.44-4.12,6.78-8.24,3.65-16.69,4.47-25.31,1.73-6.68-2.12-10.63-7.39-10.76-14.41-.19-10.17-.11-20.34-.17-30.52,0-.88.28-1.37,1.16-1.5.66-.1,1.32-.27,1.98-.32,3.64-.25,4.95.94,4.96,4.56.02,7.99,0,15.99.02,23.98,0,1.28,0,2.58.17,3.85.67,4.74,3.37,7.63,8.08,8.65,5.01,1.09,9.87.57,14.59-1.47.97-.42,1.3-.98,1.29-2.02-.05-5.87-.02-11.74-.02-17.61Z"/><path class="cls-1" d="m292.98,36.28c0-9.95.06-19.91-.05-29.86-.02-1.75.66-2.28,2.15-2.37.39-.03.78-.09,1.17-.11,3.56-.2,4.82.98,4.82,4.52,0,19.8-.02,39.59.04,59.39,0,1.71-.59,2.33-2.16,2.35-.56,0-1.11.13-1.67.15-2.92.12-4.29-1.12-4.29-4.03-.02-10.01,0-20.02,0-30.03Z"/><path class="cls-1" d="m282.57,38.09c0,10-.04,20,.04,30,.01,1.52-.59,1.97-1.87,2.07-.72.06-1.45.17-2.17.18-2.7.05-4.07-1.24-4.07-3.93-.01-20.17,0-40.34-.04-60.51,0-1.16.45-1.61,1.46-1.75.77-.1,1.55-.24,2.33-.24,3.23,0,4.32,1.1,4.32,4.33,0,9.95,0,19.89,0,29.84Z"/></g></g><g><path class="cls-1" d="m31.93,32.99c7.51-1.69,15.09-3.09,22.6-4.78,8.94-2.01,15.86-6.85,20.12-15.11,2.09-4.05,3.3-8.35,2.82-13.1-.33.1-.4.37-.55.58-5.03,6.93-11.75,11.8-19.24,15.73-7.7,4.05-15.88,6.84-24.16,9.36-6.65,2.02-12.66,5.1-17.45,10.1,1.66.54,3.3,1.11,4.91,1.75,3.22-2.08,6.86-3.6,10.96-4.53Z"/><path class="cls-1" d="m31.25,44.44c5.02-.58,10.12-.56,15.17-.94,4.85-.36,9.75-.53,14.5-1.43,5.88-1.11,10.86-4.05,14.92-8.66,3.9-4.42,6.41-9.34,7.28-15.1-2.87,2.24-5.55,4.67-8.54,6.63-10.31,6.74-22.02,9.48-33.95,11.48-5.05.85-10.14,1.54-14.94,3.33.8.45,1.59.92,2.36,1.45,1.28.88,2.34,1.99,3.21,3.24Z"/><path class="cls-1" d="m79.67,39.28c-10.67,6.56-22.63,8.28-34.8,9.12-3.82.26-7.64.39-11.46.6.59,2.06.82,4.25.67,6.42,6.97.42,13.93.99,20.9,1.42,8.49.53,15.96-1.95,22.15-7.86,3.77-3.6,6.36-7.92,7.73-13.23-1.9,1.29-3.5,2.48-5.19,3.52Z"/></g><circle class="cls-1" cx="16.06" cy="21.95" r="3.13"/></g></g></svg>