<svg id="Layer_1" data-name="Layer 1" xmlns="http://www.w3.org/2000/svg" viewBox="0 0 325.5 67.38"><defs><style>.cls-1{fill:#fff;}</style></defs><g id="text"><path class="cls-1" d="M53.13,0a3.19,3.19,0,0,1,3.3,3.3v36c0,3.3,1.39,5.61,3.3,5.61h1.65a3,3,0,0,1,3,3.3c0,1.92-1.85,3.3-4.49,3.3h-.13c-5.81,0-9.9-5.08-9.9-12.21V3.3A3.19,3.19,0,0,1,53.13,0Z"/><path class="cls-1" d="M107.31,33.46A17.91,17.91,0,0,1,89.1,51.81C78.8,51.81,71,43.89,71,33.46V3.37a3.37,3.37,0,1,1,6.73,0V21.18a16.28,16.28,0,0,1,12.74-6C100.05,15.18,107.31,23,107.31,33.46Zm-6.47,0c0-7.06-5.08-12.34-11.74-12.34S77.42,26.4,77.42,33.46s5,12.41,11.68,12.41S100.84,40.52,100.84,33.46Z"/><path class="cls-1" d="M151.86,33.53V48.24a3.37,3.37,0,1,1-6.73,0V45.8a16.26,16.26,0,0,1-12.74,6c-9.63,0-16.89-7.86-16.89-18.28a17.91,17.91,0,0,1,18.21-18.35C144,15.18,151.8,23.1,151.86,33.53Zm-6.46,0c0-7.07-5-12.41-11.69-12.41S122,26.46,122,33.53s5.08,12.34,11.74,12.34S145.4,40.59,145.4,33.53Z"/><path class="cls-1" d="M180.11,48.24c0,1.92-1.65,3.3-3.89,3.3H175c-6.6,0-11.62-5.48-11.62-12.8V22.44h-3a2.85,2.85,0,1,1,0-5.68h3V7.26a3.3,3.3,0,1,1,6.6,0v9.5h5.61a2.85,2.85,0,1,1,0,5.68H170v16.3c0,3.56,2.18,6.2,5,6.2h2.24A3,3,0,0,1,180.11,48.24Z"/><path class="cls-1" d="M213.44,19.4c-.46,1.85-1.92,2.38-3.63,2C201.36,19.73,195,22.9,195,29V48.24a3.3,3.3,0,0,1-6.6,0V18.74a3,3,0,0,1,3.3-3.3c2.18,0,3.3,1.13,3.3,3.3V20a14.69,14.69,0,0,1,11.09-4.95C211.33,15.05,214,17,213.44,19.4Z"/><path class="cls-1" d="M252.31,33.53c0,10.69-7.52,18.28-18.15,18.28S216,44.22,216,33.53s7.52-18.35,18.21-18.35S252.25,22.77,252.31,33.53Zm-29.89,0c0,7.26,4.88,12.34,11.74,12.34s11.68-5.08,11.68-12.34S241,21.12,234.16,21.12,222.42,26.27,222.42,33.53Z"/><path class="cls-1" d="M288.08,20.39c1.19,1.45,1.13,3.1-.26,4.16a4.14,4.14,0,0,1-4.95-.73c-2.24-2.11-4.62-2.77-8-2.77-3.9,0-6.93,1.39-6.93,3.9s1.38,3.89,8.51,5.34c9.9,2,13.2,5.48,13.2,10.69,0,6-4.89,10.83-14.19,10.83-6.14,0-11.75-2.12-14.65-5a3.06,3.06,0,0,1,.46-4.62,3.37,3.37,0,0,1,4.82.26c1.52,1.65,5.08,3.44,9.11,3.44,5.08,0,7.85-1.85,7.91-4.49s-2.11-4.55-9-5.81c-8.91-1.71-12.67-5.34-12.67-10.43,0-6.73,6.8-10,13.53-10C280.83,15.18,285.44,17.16,288.08,20.39Z"/><path class="cls-1" d="M323.92,20.39c1.19,1.45,1.12,3.1-.26,4.16a4.14,4.14,0,0,1-5-.73c-2.25-2.11-4.62-2.77-8-2.77-3.89,0-6.93,1.39-6.93,3.9s1.39,3.89,8.52,5.34c9.9,2,13.19,5.48,13.19,10.69,0,6-4.88,10.83-14.18,10.83-6.14,0-11.75-2.12-14.65-5a3.06,3.06,0,0,1,.46-4.62,3.37,3.37,0,0,1,4.82.26c1.51,1.65,5.08,3.44,9.1,3.44,5.08,0,7.86-1.85,7.92-4.49s-2.11-4.55-9-5.81c-8.91-1.71-12.67-5.34-12.67-10.43,0-6.73,6.79-10,13.52-10C316.66,15.18,321.28,17.16,323.92,20.39Z"/><path class="cls-1" d="M44,46.72,25.34,2.31A3.22,3.22,0,0,0,22.11,0a3.33,3.33,0,0,0-3.23,2.31L.33,46.59a3.43,3.43,0,0,0,3,4.95,3.46,3.46,0,0,0,3.17-2.11l3.76-9.24h0l2.32-5.67h0l2-5v0h0L22.24,11,29.8,29.85h0L34,40.19h0l1.75,4.38h0l1.94,4.86a3.43,3.43,0,0,0,3.17,2.11A3.36,3.36,0,0,0,44,46.72Z"/><circle class="cls-1" cx="20.47" cy="27.97" r="3.63"/></g><polygon class="cls-1" points="11.12 31.23 0.24 31.23 11.12 25.53 11.12 31.23"/><path class="cls-1" d="M91.28,61.24a1.78,1.78,0,0,0-2-2,2.34,2.34,0,0,0-2.52,2.32V65c0,.35-.36.53-.72.53s-.74-.18-.74-.54V56.45c0-.36.37-.53.73-.53s.73.17.73.53v2.76a3,3,0,0,1,2.55-1.16c2.32,0,3.42,1.15,3.42,3.16V65c0,.35-.36.53-.73.53s-.73-.18-.73-.53Z"/><path class="cls-1" d="M100.08,61.85c0-2.2,1.72-3.84,4.3-3.84s4.3,1.64,4.3,3.84-1.71,3.82-4.3,3.82S100.08,64,100.08,61.85Zm7.14,0a2.85,2.85,0,1,0-2.84,2.66A2.69,2.69,0,0,0,107.22,61.85Z"/><path class="cls-1" d="M121.88,64.54a3,3,0,0,1-2.57,1.1c-2.18,0-3.3-1.09-3.3-3.08V58.65c0-.35.36-.53.73-.53s.73.18.73.53v3.88a1.72,1.72,0,0,0,1.91,1.93,2.15,2.15,0,0,0,2.45-2.17V58.65c0-.35.35-.53.71-.53s.74.18.74.54V65c0,.36-.37.52-.72.52s-.68-.15-.68-.46Z"/><path class="cls-1" d="M132.43,62.28v2.77c0,.34-.36.52-.73.52s-.73-.18-.73-.52V56.44c0-.35.37-.53.73-.53s.73.18.73.53v4.37l4.13-2.56a.87.87,0,0,1,.5-.16.72.72,0,0,1,.77.6.58.58,0,0,1-.32.48l-3.91,2.39,4.46,3a.55.55,0,0,1,.27.43c0,.31-.42.6-.82.6a.77.77,0,0,1-.48-.16Z"/><path class="cls-1" d="M152.37,60.9c0,.39,0,.81,0,1.22a7.21,7.21,0,0,0,.31,2.64.69.69,0,0,1,.06.26c0,.34-.37.55-.74.55s-.77-.13-.83-1a.22.22,0,0,1,0-.1,4.06,4.06,0,0,1-3,1.14c-1.87,0-3.31-.53-3.31-2.21a2.1,2.1,0,0,1,1.66-2c1.95-.62,4.35-.37,4.35-1.21v-.06c-.08-.66-.74-1-2-1h-.23a2.57,2.57,0,0,0-2.16,1.12.75.75,0,0,1-.61.29c-.39,0-.76-.24-.76-.58,0-.5,1.23-1.88,3.54-1.94h.22c2.47,0,3.51,1,3.51,2.78ZM151,62.27c0-.35,0-.73,0-.73-.73.52-2.48.42-3.92.91a1.06,1.06,0,0,0-.84,1c0,1,1,1.1,1.87,1.1h.07c1.19,0,2.8-.6,2.8-2Z"/><path class="cls-1" d="M167.82,64.14c0,2.34-1.38,3.3-4,3.3a7.67,7.67,0,0,1-3.3-.65.65.65,0,0,1-.43-.58.6.6,0,0,1,.64-.58.94.94,0,0,1,.51.14,5.67,5.67,0,0,0,2.58.54c1.92,0,2.67-.72,2.67-2.39a3.43,3.43,0,0,1-2.9,1.22,3.57,3.57,0,0,1-3.89-3.54,3.61,3.61,0,0,1,3.89-3.55,3.36,3.36,0,0,1,2.82,1.17v-.6c0-.33.35-.5.69-.5s.69.17.69.5Zm-1.4-2.47a2.44,2.44,0,0,0-2.65-2.46,2.47,2.47,0,0,0-2.57,2.45,2.44,2.44,0,0,0,2.57,2.42A2.39,2.39,0,0,0,166.42,61.67Z"/><path class="cls-1" d="M175.19,61.85c0-2.2,1.71-3.84,4.3-3.84s4.3,1.64,4.3,3.84-1.72,3.82-4.3,3.82S175.19,64,175.19,61.85Zm7.14,0a2.85,2.85,0,1,0-2.84,2.66A2.69,2.69,0,0,0,182.33,61.85Z"/><path class="cls-1" d="M191.35,62.39a.62.62,0,0,1-.64-.64.61.61,0,0,1,.64-.63h3.71a.6.6,0,0,1,.63.63.61.61,0,0,1-.63.64Z"/><path class="cls-1" d="M209.32,64.44a3.21,3.21,0,0,1-2.78,1.2,3.8,3.8,0,1,1,0-7.59,3.18,3.18,0,0,1,2.72,1.14V56.44c0-.35.38-.53.73-.53s.73.18.73.53v8.65c0,.32-.36.48-.71.48s-.69-.16-.69-.45Zm0-2.59a2.5,2.5,0,0,0-2.68-2.6,2.6,2.6,0,1,0,2.68,2.6Z"/><path class="cls-1" d="M225.62,60.9c0,.39,0,.81,0,1.22a7.21,7.21,0,0,0,.31,2.64A.69.69,0,0,1,226,65c0,.34-.37.55-.74.55s-.77-.13-.83-1a.22.22,0,0,1,0-.1,4.06,4.06,0,0,1-3,1.14c-1.87,0-3.31-.53-3.31-2.21a2.1,2.1,0,0,1,1.66-2c1.95-.62,4.35-.37,4.35-1.21v-.06c-.08-.66-.74-1-2-1h-.23a2.57,2.57,0,0,0-2.16,1.12.75.75,0,0,1-.61.29c-.39,0-.76-.24-.76-.58,0-.5,1.23-1.88,3.54-1.94h.22c2.47,0,3.51,1,3.51,2.78Zm-1.37,1.37c0-.35,0-.73,0-.73-.73.52-2.48.42-3.92.91a1.06,1.06,0,0,0-.84,1c0,1,1,1.1,1.87,1.1h.07c1.19,0,2.8-.6,2.8-2Z"/><path class="cls-1" d="M235.9,65.09,232.51,59a.46.46,0,0,1-.07-.26c0-.34.41-.57.8-.57a.72.72,0,0,1,.66.35l2.71,5.11,2.14-5.13a.64.64,0,0,1,.62-.35c.4,0,.82.23.82.59a.52.52,0,0,1,0,.21L237,66a2.22,2.22,0,0,1-2.24,1.38,6.28,6.28,0,0,1-1.52-.21.58.58,0,0,1-.48-.56.64.64,0,0,1,.68-.62l.26,0a4.35,4.35,0,0,0,1,.17.94.94,0,0,0,1-.67Z"/></svg>