<?xml version="1.0" encoding="UTF-8"?><svg id="_レイヤー_2" xmlns="http://www.w3.org/2000/svg" viewBox="0 0 325.5 51.81"><defs><style>.cls-1{fill:#00695c;}</style></defs><g id="Layer_1"><g><g id="text"><g><path class="cls-1" d="M53.13,0c1.91,0,3.3,1.39,3.3,3.3V39.33c0,3.3,1.38,5.61,3.3,5.61h1.65c1.72,0,2.97,1.39,2.97,3.3s-1.85,3.3-4.49,3.3h-.13c-5.81,0-9.9-5.08-9.9-12.21V3.3c0-1.91,1.39-3.3,3.3-3.3Z"/><path class="cls-1" d="M107.31,33.46c0,10.43-7.85,18.35-18.21,18.35s-18.08-7.92-18.15-18.35V3.37c0-1.98,1.38-3.37,3.37-3.37s3.37,1.39,3.37,3.37V21.18c3.04-3.7,7.52-6.01,12.74-6.01,9.63,0,16.89,7.85,16.89,18.28Zm-6.47,0c0-7.06-5.08-12.34-11.75-12.34s-11.68,5.28-11.68,12.34,5.02,12.41,11.68,12.41,11.75-5.35,11.75-12.41Z"/><path class="cls-1" d="M151.86,33.53v14.72c0,1.91-1.45,3.37-3.37,3.37s-3.37-1.45-3.37-3.37v-2.44c-3.04,3.7-7.52,6-12.74,6-9.63,0-16.89-7.85-16.89-18.28s7.85-18.35,18.21-18.35,18.08,7.92,18.15,18.35Zm-6.47,0c0-7.06-5.02-12.41-11.68-12.41s-11.75,5.35-11.75,12.41,5.08,12.34,11.75,12.34,11.68-5.28,11.68-12.34Z"/><path class="cls-1" d="M180.11,48.24c0,1.91-1.65,3.3-3.89,3.3h-1.19c-6.6,0-11.62-5.48-11.62-12.8V22.44h-3.04c-1.85,0-3.1-1.19-3.1-2.77,0-1.72,1.25-2.9,3.1-2.9h3.04V7.26c0-1.91,1.39-3.3,3.3-3.3s3.3,1.39,3.3,3.3v9.5h5.61c1.85,0,3.1,1.19,3.1,2.9,0,1.58-1.25,2.77-3.1,2.77h-5.61v16.3c0,3.56,2.18,6.2,5.02,6.2h2.24c1.58,0,2.84,1.39,2.84,3.3Z"/><path class="cls-1" d="M213.44,19.4c-.46,1.85-1.91,2.38-3.63,1.98-8.45-1.65-14.85,1.52-14.85,7.59v19.27c0,2.11-1.12,3.3-3.3,3.3s-3.3-1.12-3.3-3.3V18.74c0-2.11,1.19-3.3,3.3-3.3s3.3,1.12,3.3,3.3v1.25c2.64-3.04,6.67-4.95,11.09-4.95,5.28,0,7.98,1.98,7.39,4.36Z"/><path class="cls-1" d="M252.31,33.53c0,10.69-7.52,18.28-18.15,18.28s-18.21-7.59-18.21-18.28,7.52-18.35,18.21-18.35,18.08,7.59,18.15,18.35Zm-29.89,0c0,7.26,4.88,12.34,11.75,12.34s11.68-5.08,11.68-12.34-4.82-12.41-11.68-12.41-11.75,5.15-11.75,12.41Z"/><path class="cls-1" d="M288.08,20.39c1.19,1.45,1.12,3.1-.26,4.16-1.45,.99-3.63,.53-4.95-.73-2.24-2.11-4.62-2.77-7.98-2.77-3.89,0-6.93,1.39-6.93,3.89s1.38,3.89,8.51,5.35c9.9,1.98,13.2,5.48,13.2,10.69,0,6-4.88,10.82-14.19,10.82-6.14,0-11.75-2.11-14.65-5.02-1.32-1.39-1.06-3.43,.46-4.62,1.72-1.39,3.56-1.06,4.82,.26,1.52,1.65,5.08,3.43,9.11,3.43,5.08,0,7.85-1.85,7.92-4.49,.07-2.64-2.11-4.55-8.97-5.81-8.91-1.72-12.67-5.35-12.67-10.43,0-6.73,6.8-9.97,13.53-9.97,5.81,0,10.43,1.98,13.07,5.21Z"/><path class="cls-1" d="M323.92,20.39c1.19,1.45,1.12,3.1-.26,4.16-1.45,.99-3.63,.53-4.95-.73-2.24-2.11-4.62-2.77-7.98-2.77-3.89,0-6.93,1.39-6.93,3.89s1.38,3.89,8.51,5.35c9.9,1.98,13.2,5.48,13.2,10.69,0,6-4.88,10.82-14.19,10.82-6.14,0-11.75-2.11-14.65-5.02-1.32-1.39-1.06-3.43,.46-4.62,1.72-1.39,3.56-1.06,4.82,.26,1.52,1.65,5.08,3.43,9.11,3.43,5.08,0,7.85-1.85,7.92-4.49,.07-2.64-2.11-4.55-8.97-5.81-8.91-1.72-12.67-5.35-12.67-10.43,0-6.73,6.8-9.97,13.53-9.97,5.81,0,10.43,1.98,13.07,5.21Z"/></g><path class="cls-1" d="M43.95,46.72L25.34,2.31C24.75,.73,23.63,0,22.11,0s-2.57,.73-3.23,2.31L.33,46.59c-1.05,2.38,.53,4.95,3.04,4.95,1.25,0,2.57-.73,3.17-2.11l3.76-9.24h0l2.31-5.68h0l2.04-4.98h0s7.59-18.52,7.59-18.52l7.56,18.82h0l4.17,10.35h.01l1.75,4.38h0s1.94,4.86,1.94,4.86c.53,1.32,1.85,2.11,3.17,2.11,2.51,0,4.09-2.38,3.1-4.82Z"/><circle class="cls-1" cx="20.47" cy="27.97" r="3.63"/></g><polygon class="cls-1" points="11.12 31.23 .24 31.23 11.12 25.53 11.12 31.23"/></g></g></svg>