<svg id="Layer_1" data-name="Layer 1" xmlns="http://www.w3.org/2000/svg" viewBox="0 0 328.17 55.02"><defs><style>.cls-1{fill:#00695c;}</style></defs><g id="text"><path class="cls-1" d="M54.46,1.61a3.19,3.19,0,0,1,3.3,3.3v36c0,3.3,1.39,5.61,3.3,5.61h1.65a3,3,0,0,1,3,3.3c0,1.91-1.85,3.3-4.49,3.3h-.13c-5.81,0-9.9-5.08-9.9-12.21v-36A3.19,3.19,0,0,1,54.46,1.61Z"/><path class="cls-1" d="M108.64,35.07A17.91,17.91,0,0,1,90.43,53.41c-10.3,0-18.08-7.92-18.15-18.34V5A3.37,3.37,0,0,1,79,5V22.79a16.28,16.28,0,0,1,12.74-6C101.38,16.79,108.64,24.64,108.64,35.07Zm-6.46,0c0-7.06-5.09-12.34-11.75-12.34S78.75,28,78.75,35.07s5,12.4,11.68,12.4S102.18,42.13,102.18,35.07Z"/><path class="cls-1" d="M153.19,35.13V49.85a3.37,3.37,0,1,1-6.73,0V47.41a16.27,16.27,0,0,1-12.74,6c-9.63,0-16.89-7.85-16.89-18.28A17.91,17.91,0,0,1,135,16.79C145.34,16.79,153.13,24.71,153.19,35.13Zm-6.46,0c0-7.06-5-12.4-11.69-12.4s-11.74,5.34-11.74,12.4S128.38,47.47,135,47.47,146.73,42.2,146.73,35.13Z"/><path class="cls-1" d="M181.44,49.85c0,1.91-1.65,3.3-3.89,3.3h-1.19c-6.6,0-11.62-5.48-11.62-12.8V24.05h-3a2.85,2.85,0,1,1,0-5.68h3V8.87a3.3,3.3,0,0,1,6.6,0v9.5H177a2.85,2.85,0,1,1,0,5.68h-5.61v16.3c0,3.56,2.18,6.2,5,6.2h2.24A3,3,0,0,1,181.44,49.85Z"/><path class="cls-1" d="M214.77,21c-.46,1.85-1.92,2.38-3.63,2-8.45-1.65-14.85,1.52-14.85,7.59V49.85a3.3,3.3,0,1,1-6.6,0V20.35a3,3,0,0,1,3.3-3.3c2.18,0,3.3,1.12,3.3,3.3v1.26a14.7,14.7,0,0,1,11.09-5C212.66,16.65,215.36,18.64,214.77,21Z"/><path class="cls-1" d="M253.64,35.13c0,10.69-7.52,18.28-18.15,18.28s-18.21-7.59-18.21-18.28,7.52-18.34,18.21-18.34S253.58,24.38,253.64,35.13Zm-29.89,0c0,7.26,4.88,12.34,11.74,12.34s11.69-5.08,11.69-12.34-4.82-12.4-11.69-12.4S223.75,27.87,223.75,35.13Z"/><path class="cls-1" d="M289.41,22c1.19,1.45,1.13,3.1-.26,4.16a4.14,4.14,0,0,1-4.95-.73c-2.24-2.11-4.62-2.77-8-2.77-3.9,0-6.93,1.39-6.93,3.89s1.38,3.9,8.51,5.35c9.9,2,13.2,5.48,13.2,10.69,0,6-4.89,10.82-14.19,10.82-6.14,0-11.75-2.11-14.65-5a3.06,3.06,0,0,1,.46-4.62,3.35,3.35,0,0,1,4.82.26c1.52,1.65,5.08,3.43,9.11,3.43,5.08,0,7.85-1.84,7.91-4.48s-2.11-4.56-9-5.81c-8.91-1.72-12.67-5.35-12.67-10.43,0-6.73,6.8-10,13.53-10C282.16,16.79,286.77,18.77,289.41,22Z"/><path class="cls-1" d="M325.25,22c1.19,1.45,1.12,3.1-.26,4.16a4.14,4.14,0,0,1-4.95-.73c-2.25-2.11-4.62-2.77-8-2.77-3.89,0-6.93,1.39-6.93,3.89s1.39,3.9,8.52,5.35c9.9,2,13.2,5.48,13.2,10.69,0,6-4.89,10.82-14.19,10.82-6.14,0-11.75-2.11-14.65-5a3.06,3.06,0,0,1,.46-4.62,3.35,3.35,0,0,1,4.82.26c1.51,1.65,5.08,3.43,9.1,3.43,5.08,0,7.86-1.84,7.92-4.48s-2.11-4.56-9-5.81c-8.91-1.72-12.67-5.35-12.67-10.43,0-6.73,6.79-10,13.53-10C318,16.79,322.61,18.77,325.25,22Z"/><path class="cls-1" d="M45.29,48.33,26.67,3.92a3.21,3.21,0,0,0-3.23-2.31,3.32,3.32,0,0,0-3.23,2.31L1.66,48.2a3.43,3.43,0,0,0,3,4.95A3.48,3.48,0,0,0,7.87,51l3.76-9.24h0L14,36.12h0l2-5v0h0l7.59-18.5,7.56,18.82h0L35.31,41.8h0l1.75,4.38h0L39,51a3.41,3.41,0,0,0,3.16,2.11A3.37,3.37,0,0,0,45.29,48.33Z"/><circle class="cls-1" cx="21.8" cy="29.58" r="3.63"/></g><polygon class="cls-1" points="12.45 32.84 1.57 32.84 12.45 27.14 12.45 32.84"/></svg>