<?xml version="1.0" encoding="UTF-8"?>
<svg id="_レイヤー_2" data-name="レイヤー 2" xmlns="http://www.w3.org/2000/svg" viewBox="0 0 893.47 243.54">
  <defs>
    <style>
      .cls-1 {
        fill: #eee;
      }
    </style>
  </defs>
  <g id="_レイヤー_1-2" data-name="レイヤー 1">
    <g>
      <path class="cls-1" d="M182.82,115.78c-1.54,1.73.24,1.68,1.49,1.96,18.28,4.06,14.44,16.23,7.31,29.32-11.83,21.71-32.76,38.08-55.7,46.81,2.8,10.83-10.92,19.78-19.43,24.06-22.21,11.17-47.91,4.74-70.06,14.94-4,1.84-15.42,10.41-18.29,10.65-8.24.7-21.92-30.77-23.84-37.77-13.11-47.62,4.43-94.72,43.18-123.84,33.49-25.17,77.3-27.57,114.69-44.31,19.96-8.94,35.29-20.99,50.11-36.93,6.47-3.8,11.15,9.2,12.26,13.85,9.23,38.65-11.85,74.14-38.7,99.79-1.05,1-2.9,1.33-3.01,1.46ZM210.81,20.76c-1.22-1.28-7.74,6.45-8.98,7.51-39.27,33.47-86.66,34.43-130.69,54.31C23.99,103.88,6.8,150.4,17.09,199.98c.77,3.7,8.92,26.45,10.84,27.65,2.3,1.44,12.14-6.42,15.21-8.04,18.95-10,36.81-7.8,56.9-11.1,4.3-.71,19.16-3.81,22.17-5.83.97-.65,1.66-1.07,1.66-2.4,0-4.6-19.71-6.29-24.06-8-3.16-1.25-15.29-8.85-12.1-13.04,3.93-5.16,10.11-.24,14.68.46,25.95,3.97,49.46-3.27,66.93-22.9,2.86-3.22,15.74-19.94,12.38-23.91-6.92-2.21-14.34.42-21.4.89-7.51.5-27.7,2.49-33.41-.57-1.08-.58-3.22-2.49-3-3.78,1.39-1.86,3.16-3.74,5.21-4.85,10.19-5.52,25.05-8.16,36.03-13.97,15.56-8.23,27.5-21.8,35.84-37.16,8.81-16.21,12.33-34.29,9.82-52.67Z"/>
      <path class="cls-1" d="M635.82,128.76c3.01-.68,4.87-3.26,7.79-4.71,48.6-24.25,62.55,68.09,15.68,70.71-10.16.57-14.7-4.18-22.98-8.08l-1.38.21c-2.73,9.66-11.29,9.85-14.16.43l.11-92c.97-4.81,6.65-10.16,11.52-6.63.8.58,3.42,5.92,3.42,6.57v33.5ZM649.55,134c-4.29.74-10.4,4.4-13.57,7.43-.57,1.68-.63,28.26-.14,30.81.68,3.56,11.12,7.96,14.56,8.43,11.89,1.61,20.88-5.73,22.31-17.52,1.94-16.05-4.23-32.4-23.15-29.15Z"/>
      <path class="cls-1" d="M877.82,148.76c.53-13.72-7.26-16.35-19.39-14.89-6.48.78-13.72,8.28-18.04,1.83-6.55-9.77,14.08-15.37,21.06-15.81,13.62-.85,25.62,5.63,29.67,19.07,2.58,8.56,2.84,37.91,1.72,47.32-1.18,9.94-12.24,10.24-14.04.48l-1.39.08c-14.97,13.64-43.72,9.78-43-14.23.28-9.59,6.29-16.22,14.71-20.05,1.53-.7,10.27-3.81,11.19-3.81h17.5ZM878.82,160.76h-18.5c-.82,0-7.06,3.12-7.94,4.06-2.63,2.81-3.28,8.46-2.11,12,2.95,8.97,27.41,4.26,28.6-4.51.48-3.5-.44-7.9-.05-11.55Z"/>
      <path class="cls-1" d="M307.82,148.76c-1.03-13.5-7.69-16.42-20.39-14.89-5.4.65-8.87,3.79-13.9,4.76-10.43-7.3-2.34-13.5,6.34-16.32,26.6-8.65,42.89,6.21,43.04,32.96.02,2.86-1.13,5.33-1.13,7.95,0,5.32,1.03,24.09-.48,27.52-1.73,3.91-8.31,4.04-10.95,1-1.57-1.81-.68-5.35-3.05-5-1.69.25-7.04,4.96-9.94,6.07-29.66,11.33-47.66-24.98-20.43-39.43,1.84-.98,10.98-4.61,12.39-4.61h18.5ZM307.82,160.76h-17.5c-1.11,0-8.12,3.7-9.09,4.91-2.31,2.92-3.04,10.86-.42,13.6,5.29,5.53,25.96,1.49,27.06-6.96.46-3.53-.43-7.89-.05-11.55Z"/>
      <path class="cls-1" d="M743.82,148.76c.16-13.51-8.27-16.6-20.41-14.91-3.99.56-9.92,4.94-12.12,4.89-1.3-.03-5.53-3.97-6-5.02-1.89-4.16,4.62-8.61,7.84-10.15,18.99-9.11,42.76-1.14,44.73,21.65,1.23,14.33-.56,30.99-.55,45.52-4.31,6.22-12.35,3.35-12.49-3.98-4.29.42-6.08,4.06-10.71,5.78-11.2,4.15-27.51,2.62-32.49-10.06-5.33-13.55,1.79-24.83,14.24-30.2,1.47-.63,9.66-3.52,10.48-3.52h17.5ZM743.82,159.76c-9.69,1.44-27.59-1.98-28.07,12.48-.23,6.97,1.47,8.97,8.58,9.53,7.05.56,13.94-2.5,19.49-6.52v-15.5Z"/>
      <path class="cls-1" d="M547.55,120.94c3.49-.73,7.56,1.75,8.25,5.34,2.51,13.16-3.04,33.39,1.53,46.47,4.92,14.08,28.24,7.44,29.51-3.47,1.11-9.46-3-39.68,3.9-45.1,7.28-5.71,10.59,2.8,11.11,9.04,1.06,12.6,1.43,40.83-.01,53.06-.81,6.89-8.27,11.84-12.9,4.85-1.01-1.52-1.2-5.92-3.61-5.37-.64.15-7.1,5.92-10.81,7.2-17.63,6.12-32.13-7.61-33.69-24.73-.67-7.31-1.11-34.45.45-40.51.7-2.7,3.37-6.19,6.26-6.79Z"/>
      <path class="cls-1" d="M793.58,121.02c7.56-1.1,31.02,2.15,25.72,13.73-3.6,7.87-11.07.14-16.22-.75-6.18-1.07-15.79-.1-15.23,8.2.5,7.45,13.95,7.61,19.52,9.5,28.63,9.72,15.58,45.67-14.93,42.93-7.1-.64-29.77-8.2-18.56-17.31,5.02-4.08,9.2,1.56,14.12,2.75s18.73,2.28,20.6-4.02c4.3-14.47-16.65-13.17-25.32-18.27-18.05-10.61-8.04-34.1,10.29-36.77Z"/>
      <path class="cls-1" d="M498.6,121.04c6.38-.78,12.8-.03,18.6,2.84,5.3,2.62,9.54,7.99,4.14,12.89s-8.55-1.78-14.26-2.77c-4.23-.73-12.37-.57-14.52,3.99-5.4,11.44,12.77,11.42,19.53,14,29.55,11.23,12.33,49.7-22.49,41.49-6.22-1.47-18.26-7.03-13.22-14.67,4.56-6.9,11.93,1.29,18.89,2,5.35.55,14.33,1.14,16.63-4.47,5.76-14.08-14.03-13.2-22.6-17.55-20.6-10.46-11.09-35.27,9.31-37.75Z"/>
      <path class="cls-1" d="M444.82,123.76h17.5c3.36,0,5.19,9.89,1,12h-17.5v41.5c0,.66,3.21,3.22,4.52,3.47,5.21,1.03,14.33-3.77,16.28,2.74,3.21,10.72-13.8,11.69-20.84,9.82-24.92-6.63-12.02-39.5-16-57.48-19.16,2.36-17.35-15.38,1.05-12.05.02-5.58-1.61-20.51,6.57-20.99,3.22-.19,7.42,3.51,7.42,6.49v14.5Z"/>
      <path class="cls-1" d="M348.3,122.17c4.98-.18,8.18,5.92,8.56,10.04,1.1,11.9,1.11,37.12-.17,48.92-1,9.21-7.26,18.69-14.43,7.68-.57-16.47-2.43-33.08-1.49-49.59.18-3.15.97-12.86,2.49-14.51.68-.74,4.03-2.5,5.04-2.54Z"/>
      <path class="cls-1" d="M383.61,147.05c4.57-.51,18.44-1.1,22.26.14,4.8,1.56,5.56,10.21,1.5,12.62-1.56.93-11.23,1.82-14.02,1.98-6.09.34-19,1.96-21.13-5.01-2.31-7.57,5.98-9.13,11.38-9.74Z"/>
      <path class="cls-1" d="M347.57,87.93c7.09-1.17,14.66,9.19,7.64,16.73-12.17,13.08-25.49-13.77-7.64-16.73Z"/>
    </g>
  </g>
</svg>