<svg xmlns="http://www.w3.org/2000/svg" viewBox="0 0 83.13 96.83"><defs><style>.cls-1{fill:#fff;}</style></defs><g id="レイヤー_2" data-name="レイヤー 2"><g id="Layer_1" data-name="Layer 1"><path class="cls-1" d="M82.57,87.78l-35-83.44A6,6,0,0,0,41.54,0c-2.73,0-4.84,1.36-6.08,4.34L.62,87.53a6.45,6.45,0,0,0,5.71,9.3,6.52,6.52,0,0,0,5.95-4L19.35,75.5h0L23.7,64.84h0l3.84-9.35v0h0L41.78,20.71,56,56.07h0L63.83,75.5h0l3.29,8.23h0l3.65,9.12a6.44,6.44,0,0,0,6,4C81.46,96.83,84.43,92.36,82.57,87.78Z"/><polygon class="cls-1" points="20.9 58.67 0.45 58.67 20.9 47.97 20.9 58.67"/><rect class="cls-1" x="37.64" y="43.89" width="4.78" height="21.25" rx="2.39" transform="translate(106.87 64.75) rotate(135)"/><rect class="cls-1" x="37.64" y="43.89" width="4.78" height="21.25" rx="2.39" transform="translate(50.27 -12.34) rotate(45)"/></g></g></svg>