<svg id="Layer_1" data-name="Layer 1" xmlns="http://www.w3.org/2000/svg" viewBox="0 0 3865.68 1051.98"><defs><style>.cls-1{fill:#2e3851;}.cls-14,.cls-2{fill:#00695c;}.cls-2,.cls-3,.cls-4{stroke:#00695c;}.cls-11,.cls-13,.cls-2,.cls-4,.cls-5,.cls-7{stroke-miterlimit:10;}.cls-2{stroke-width:1.05px;}.cls-12,.cls-13,.cls-3,.cls-4,.cls-6,.cls-7{fill:none;stroke-linecap:round;}.cls-12,.cls-3,.cls-6{stroke-linejoin:round;}.cls-3,.cls-4{stroke-width:8.42px;}.cls-5{fill:#1d661d;stroke-width:0.96px;}.cls-5,.cls-6,.cls-7{stroke:#1d661d;}.cls-6{stroke-width:6.09px;}.cls-7{stroke-width:6.33px;}.cls-8{fill:#26a69a;}.cls-9{fill:#d2f8cb;}.cls-10,.cls-11{fill:#e0f2f1;}.cls-11,.cls-12,.cls-13{stroke:#e0f2f1;}.cls-11{stroke-width:0.5px;}.cls-12,.cls-13{stroke-width:4.01px;}</style></defs><g id="NewGroup29-0"><path class="cls-1" d="M167.22,78.63A11.13,11.13,0,1,0,178.34,67.5a11.12,11.12,0,0,0-11.12,11.13Z" transform="translate(-25.81 -4.01)"/><polygon class="cls-1" points="390.8 369.91 390.8 369.91 390.79 369.91 390.8 369.91 390.8 369.91"/><path class="cls-1" d="M418.18,339.62A251.5,251.5,0,0,0,404.93,306a329.65,329.65,0,0,0-34.64-57.41,241.44,241.44,0,0,0-23.06-26.39,165.93,165.93,0,0,0-26.47-21.39h0a140.74,140.74,0,0,0-22-11.74,70.45,70.45,0,0,0-14.05-4.28l-16.22-26.55a16.73,16.73,0,0,1-1.73-3.87h0L248,92.23a34.6,34.6,0,0,0,.53-20.82,39.41,39.41,0,0,0-8.05-14.67A56.66,56.66,0,0,0,218.7,41.52,77.29,77.29,0,0,0,189.47,36a79.09,79.09,0,0,0-22.81,3.29A67.38,67.38,0,0,0,152,45.61a50.67,50.67,0,0,0-16.41,15,38.33,38.33,0,0,0-4.76,9.67A34.9,34.9,0,0,0,129.07,81a34,34,0,0,0,.24,3.92,197.77,197.77,0,0,1-22.75,13.46,89,89,0,0,1-12.67,5.16,36,36,0,0,1-10.29,1.82,15.59,15.59,0,0,1-3.25-.31h0a34.88,34.88,0,0,0-7.2-.8,24.05,24.05,0,0,0-9.63,1.9,21,21,0,0,0-7.19,5.14h0a21.74,21.74,0,0,0-4.27,6.89,20.94,20.94,0,0,0-1.38,7.5,21.9,21.9,0,0,0,1.63,8.25A22.43,22.43,0,0,0,60,143.77a21.56,21.56,0,0,0,5.88,3,21.79,21.79,0,0,0,6.85,1.08l1.35,0h0a188.73,188.73,0,0,0,37.35-6.18h0c1.87-.49,4.13-1,6.66-1.48,4.43-.87,9.68-1.71,15.32-2.61,8.46-1.35,17.79-2.83,26.75-4.77,4.49-1,8.88-2.06,13.05-3.33a89.31,89.31,0,0,0,9.94-3.62c2.06.16,4.16.25,6.29.25s4.17-.08,6.21-.24c1.64,4.4,3.09,8.65,4.22,12.47a24.87,24.87,0,0,1,.76,4.48c.19,2,.29,4.34.29,7,0,4-.21,8.62-.58,13.82-.64,9.09-1.78,19.84-3.13,31.57-2,17.61-4.52,37.46-6.51,57.58s-3.5,40.5-3.5,59.29c0,8,.28,15.77.92,23.09h0a73,73,0,0,0,9,28.36,114.93,114.93,0,0,0,13.67,19.65A168.25,168.25,0,0,0,239,409a197.86,197.86,0,0,0,31.27,18.81l22.51,45.83-32.62,22.4-30.71-8.51a12.81,12.81,0,0,0-3.41-.47,12.68,12.68,0,0,0-5.33,1.18,12.51,12.51,0,0,0-4.41,3.36h0L196.59,515a12.62,12.62,0,0,0-3,8.16,12.84,12.84,0,0,0,3.49,8.79,12.72,12.72,0,0,0,9.25,4H288a12.71,12.71,0,0,0,8.35-3.13,6.94,6.94,0,0,0,1.74-2.31l27.1-57.93a12.71,12.71,0,0,0,3.11-8.31,12.94,12.94,0,0,0-.15-2v0L325,442.89c.93,0,1.86.05,2.79.05,9.05,0,17.65-1.47,25.3-4.92a43.27,43.27,0,0,0,10.58-6.71A41.34,41.34,0,0,0,372,421.5a7,7,0,0,0-11.91-7.28,27.55,27.55,0,0,1-5.51,6.54,31.5,31.5,0,0,1-11.45,6.15,52.29,52.29,0,0,1-15.3,2.07,81,81,0,0,1-10.21-.68h0a7,7,0,0,0-7.78,8l4.45,27.5a7,7,0,0,0-1.23,1.82L286.7,522H209l17.49-20.8,30.5,8.45h0a12.64,12.64,0,0,0,10.6-1.77h0l34-23.33h0a12.74,12.74,0,0,0,4.22-16.1l-24-48.94a7.07,7.07,0,0,0-3.32-3.25,184.53,184.53,0,0,1-27.87-16.13c-13.24-9.3-25-20.25-33.61-31.71a87.45,87.45,0,0,1-10.31-17.36,55.1,55.1,0,0,1-4.56-17.12h0c-.59-6.82-.86-14.17-.86-21.88,0-13.75.84-28.63,2.12-43.72,1.91-22.65,4.79-45.77,7.21-66.44,1.2-10.34,2.29-20.06,3.09-28.84s1.29-16.61,1.29-23.26c0-3-.1-5.81-.35-8.36a37.85,37.85,0,0,0-1.26-7.1h0c-1.71-5.82-4-12.18-6.5-18.58a7,7,0,0,0-7.5-4.36,68.34,68.34,0,0,1-9.81.7c-2.3,0-4.56-.12-6.79-.34a7.1,7.1,0,0,0-3.69.64,87.53,87.53,0,0,1-15.87,5.35c-9.17,2.3-19.65,4-29.45,5.61-4.9.78-9.63,1.53-14,2.3s-8.33,1.55-11.8,2.48h0a174.91,174.91,0,0,1-34.58,5.73l-.54,0a7.71,7.71,0,0,1-3.24-.68A8.14,8.14,0,0,1,66,130.12a8.34,8.34,0,0,1-1.34-4.43,7.08,7.08,0,0,1,.46-2.53,7.54,7.54,0,0,1,1.54-2.45h0A7,7,0,0,1,69.07,119a10.06,10.06,0,0,1,4.08-.74,20.81,20.81,0,0,1,4.32.5h0a30.06,30.06,0,0,0,6.13.61A49.65,49.65,0,0,0,98,116.89a118.43,118.43,0,0,0,22.07-9.83A246.51,246.51,0,0,0,141,93.84a7,7,0,0,0,2.75-7.52A20.51,20.51,0,0,1,143,81a21,21,0,0,1,.81-5.75,25.65,25.65,0,0,1,5.25-9.47,42.86,42.86,0,0,1,16.43-11.35,63.48,63.48,0,0,1,23.95-4.53,65,65,0,0,1,18.77,2.7,53.52,53.52,0,0,1,11.66,5,36.61,36.61,0,0,1,11.93,10.77,24.43,24.43,0,0,1,3,6.15,20.73,20.73,0,0,1-.69,14.72,6.91,6.91,0,0,0-.25,4.74l19.51,64.4h0a30.41,30.41,0,0,0,3.18,7.1h0l17.91,29.33a7,7,0,0,0,5.2,3.3A51.86,51.86,0,0,1,293.5,202a127.63,127.63,0,0,1,19.74,10.59h0c13.65,8.72,26.56,20.9,38.14,34.69,17.38,20.69,31.78,45,41.71,66.38a236.42,236.42,0,0,1,11.42,29,110.71,110.71,0,0,1,2.89,11.1,41.24,41.24,0,0,1,.92,7.6,12.63,12.63,0,0,1-.07,1.39c-.14.07-.32.16-.56.26a14.46,14.46,0,0,1-3.07.74,36.56,36.56,0,0,1-5,.31,80.49,80.49,0,0,1-11.44-1c-4.35-.65-9.16-1.61-14.28-2.89h0a250.68,250.68,0,0,1-57.83-22.93A195.64,195.64,0,0,1,289,319.48a115,115,0,0,1-20.72-20.73,103.07,103.07,0,0,1-12.17-20.49,74.52,74.52,0,0,1-5.42-17.95A7,7,0,1,0,237,262.57h0a88.5,88.5,0,0,0,6.41,21.29,117.15,117.15,0,0,0,13.78,23.27,129.51,129.51,0,0,0,23.22,23.29c13.37,10.59,28.9,19.63,44.59,26.93a259.27,259.27,0,0,0,45.61,16.37h0c5.51,1.37,10.74,2.43,15.61,3.15A93.36,93.36,0,0,0,399.66,378a44.2,44.2,0,0,0,9.09-.83,25.7,25.7,0,0,0,4.07-1.19,17.87,17.87,0,0,0,3.79-2,13.42,13.42,0,0,0,3.25-3.26,12.17,12.17,0,0,0,1.95-4.48h0a23.05,23.05,0,0,0,.46-4.85,45.37,45.37,0,0,0-.54-6.64,108.47,108.47,0,0,0-3.55-15.07Z" transform="translate(-25.81 -4.01)"/><path class="cls-1" d="M375.48,391.59a7,7,0,1,0,7,7,7,7,0,0,0-7-7Z" transform="translate(-25.81 -4.01)"/></g><g id="text"><path class="cls-1" d="M113.88,680.73a3.43,3.43,0,0,1-3.17-2.11L107,669.38H83.33l-3.76,9.24a3.48,3.48,0,0,1-3.17,2.11,3.43,3.43,0,0,1-3-5L91.91,631.5a3.32,3.32,0,0,1,3.23-2.31,3.21,3.21,0,0,1,3.23,2.31L117,675.91A3.37,3.37,0,0,1,113.88,680.73Zm-9.17-17-9.44-23.49L85.64,663.7Z" transform="translate(-25.81 -4.01)"/><path class="cls-1" d="M126.16,629.19a3.19,3.19,0,0,1,3.3,3.3v36c0,3.3,1.39,5.61,3.3,5.61h1.65a3,3,0,0,1,3,3.3c0,1.91-1.85,3.3-4.49,3.3h-.13c-5.81,0-9.9-5.08-9.9-12.21v-36A3.19,3.19,0,0,1,126.16,629.19Z" transform="translate(-25.81 -4.01)"/><path class="cls-1" d="M180.34,662.65A17.91,17.91,0,0,1,162.13,681c-10.3,0-18.08-7.92-18.15-18.34v-30.1a3.37,3.37,0,0,1,6.73,0v17.82a16.28,16.28,0,0,1,12.74-6C173.08,644.37,180.34,652.22,180.34,662.65Zm-6.47,0c0-7.06-5.08-12.34-11.74-12.34s-11.68,5.28-11.68,12.34,5,12.4,11.68,12.4S173.87,669.71,173.87,662.65Z" transform="translate(-25.81 -4.01)"/><path class="cls-1" d="M224.89,662.71v14.72a3.37,3.37,0,1,1-6.73,0V675a16.28,16.28,0,0,1-12.74,6c-9.63,0-16.89-7.85-16.89-18.28a17.91,17.91,0,0,1,18.21-18.34C217,644.37,224.83,652.29,224.89,662.71Zm-6.46,0c0-7.06-5-12.4-11.69-12.4S195,655.65,195,662.71s5.08,12.34,11.74,12.34S218.43,669.77,218.43,662.71Z" transform="translate(-25.81 -4.01)"/><path class="cls-1" d="M253.14,677.43c0,1.91-1.65,3.3-3.89,3.3h-1.19c-6.6,0-11.62-5.48-11.62-12.8v-16.3h-3a2.85,2.85,0,1,1,0-5.68h3v-9.5a3.3,3.3,0,1,1,6.6,0V646h5.61a2.85,2.85,0,1,1,0,5.68H243v16.3c0,3.56,2.18,6.2,5,6.2h2.24A3,3,0,0,1,253.14,677.43Z" transform="translate(-25.81 -4.01)"/><path class="cls-1" d="M286.47,648.59c-.46,1.85-1.92,2.38-3.63,2-8.45-1.65-14.85,1.52-14.85,7.59v19.27a3.3,3.3,0,0,1-6.6,0v-29.5a3,3,0,0,1,3.3-3.3c2.18,0,3.3,1.12,3.3,3.3v1.26a14.7,14.7,0,0,1,11.09-5C284.36,644.23,287.06,646.22,286.47,648.59Z" transform="translate(-25.81 -4.01)"/><path class="cls-1" d="M325.34,662.71c0,10.69-7.52,18.28-18.15,18.28S289,673.4,289,662.71s7.52-18.34,18.21-18.34S325.28,652,325.34,662.71Zm-29.89,0c0,7.26,4.88,12.34,11.74,12.34s11.68-5.08,11.68-12.34-4.81-12.4-11.68-12.4S295.45,655.45,295.45,662.71Z" transform="translate(-25.81 -4.01)"/><path class="cls-1" d="M361.11,649.58c1.19,1.45,1.13,3.1-.26,4.16a4.14,4.14,0,0,1-5-.73c-2.24-2.11-4.62-2.77-8-2.77-3.9,0-6.93,1.39-6.93,3.89s1.38,3.9,8.51,5.35c9.9,2,13.2,5.48,13.2,10.69,0,6-4.89,10.82-14.19,10.82-6.14,0-11.75-2.11-14.65-5a3.06,3.06,0,0,1,.46-4.62,3.35,3.35,0,0,1,4.82.26c1.52,1.65,5.08,3.43,9.11,3.43,5.08,0,7.85-1.84,7.91-4.48s-2.11-4.56-9-5.81c-8.91-1.72-12.67-5.35-12.67-10.43,0-6.73,6.8-10,13.53-10C353.86,644.37,358.47,646.35,361.11,649.58Z" transform="translate(-25.81 -4.01)"/><path class="cls-1" d="M397,649.58c1.19,1.45,1.12,3.1-.26,4.16a4.14,4.14,0,0,1-4.95-.73c-2.25-2.11-4.62-2.77-8-2.77-3.89,0-6.93,1.39-6.93,3.89s1.39,3.9,8.52,5.35c9.9,2,13.19,5.48,13.19,10.69,0,6-4.88,10.82-14.18,10.82-6.14,0-11.75-2.11-14.65-5a3.06,3.06,0,0,1,.46-4.62,3.35,3.35,0,0,1,4.82.26c1.51,1.65,5.08,3.43,9.1,3.43,5.08,0,7.86-1.84,7.92-4.48s-2.11-4.56-9-5.81c-8.91-1.72-12.67-5.35-12.67-10.43,0-6.73,6.79-10,13.52-10C389.69,644.37,394.31,646.35,397,649.58Z" transform="translate(-25.81 -4.01)"/></g><g id="text-2" data-name="text"><path class="cls-1" d="M3616.36,251.43a3.19,3.19,0,0,1,3.3,3.3v36c0,3.3,1.38,5.61,3.3,5.61h1.65a3,3,0,0,1,3,3.3c0,1.91-1.85,3.29-4.49,3.29H3623c-5.81,0-9.9-5.08-9.9-12.2v-36A3.19,3.19,0,0,1,3616.36,251.43Z" transform="translate(-25.81 -4.01)"/><path class="cls-1" d="M3670.54,284.89a17.91,17.91,0,0,1-18.21,18.35c-10.3,0-18.08-7.92-18.15-18.35V254.8a3.37,3.37,0,1,1,6.73,0v17.82a16.26,16.26,0,0,1,12.74-6C3663.28,266.61,3670.54,274.47,3670.54,284.89Zm-6.47,0c0-7.06-5.08-12.34-11.74-12.34s-11.68,5.28-11.68,12.34,5,12.41,11.68,12.41S3664.07,292,3664.07,284.89Z" transform="translate(-25.81 -4.01)"/><path class="cls-1" d="M3715.09,285v14.72a3.37,3.37,0,0,1-6.73,0v-2.45a16.26,16.26,0,0,1-12.74,6c-9.63,0-16.89-7.85-16.89-18.28a17.91,17.91,0,0,1,18.21-18.35C3707.24,266.61,3715,274.53,3715.09,285Zm-6.46,0c0-7.06-5-12.41-11.69-12.41S3685.2,277.9,3685.2,285s5.08,12.34,11.74,12.34S3708.63,292,3708.63,285Z" transform="translate(-25.81 -4.01)"/><path class="cls-1" d="M3743.34,299.68c0,1.91-1.65,3.29-3.89,3.29h-1.19c-6.6,0-11.62-5.47-11.62-12.8v-16.3h-3a2.85,2.85,0,1,1,0-5.67h3v-9.51a3.3,3.3,0,1,1,6.6,0v9.51h5.61a2.85,2.85,0,1,1,0,5.67h-5.61v16.3c0,3.57,2.18,6.21,5,6.21h2.24A3,3,0,0,1,3743.34,299.68Z" transform="translate(-25.81 -4.01)"/><path class="cls-1" d="M3776.67,270.84c-.46,1.84-1.92,2.37-3.63,2-8.45-1.65-14.85,1.51-14.85,7.58v19.28a3.3,3.3,0,0,1-6.6,0v-29.5a3,3,0,0,1,3.3-3.3c2.18,0,3.3,1.12,3.3,3.3v1.25a14.69,14.69,0,0,1,11.09-4.95C3774.56,266.48,3777.26,268.46,3776.67,270.84Z" transform="translate(-25.81 -4.01)"/><path class="cls-1" d="M3815.54,285c0,10.69-7.52,18.28-18.15,18.28s-18.21-7.59-18.21-18.28,7.52-18.35,18.21-18.35S3815.48,274.2,3815.54,285Zm-29.89,0c0,7.26,4.88,12.34,11.74,12.34s11.68-5.08,11.68-12.34-4.81-12.41-11.68-12.41S3785.65,277.7,3785.65,285Z" transform="translate(-25.81 -4.01)"/><path class="cls-1" d="M3851.31,271.83c1.19,1.45,1.13,3.1-.26,4.15a4.15,4.15,0,0,1-5-.72c-2.24-2.11-4.62-2.77-8-2.77-3.9,0-6.93,1.38-6.93,3.89s1.38,3.89,8.51,5.34c9.9,2,13.2,5.48,13.2,10.7,0,6-4.89,10.82-14.19,10.82-6.14,0-11.75-2.11-14.65-5a3.06,3.06,0,0,1,.46-4.62,3.36,3.36,0,0,1,4.82.27c1.52,1.65,5.08,3.43,9.11,3.43,5.08,0,7.85-1.85,7.91-4.49s-2.11-4.55-9-5.81c-8.91-1.71-12.67-5.34-12.67-10.42,0-6.73,6.8-10,13.53-10C3844.05,266.61,3848.67,268.59,3851.31,271.83Z" transform="translate(-25.81 -4.01)"/><path class="cls-1" d="M3887.15,271.83c1.19,1.45,1.12,3.1-.26,4.15a4.15,4.15,0,0,1-4.95-.72c-2.25-2.11-4.62-2.77-8-2.77-3.89,0-6.93,1.38-6.93,3.89s1.39,3.89,8.52,5.34c9.9,2,13.19,5.48,13.19,10.7,0,6-4.88,10.82-14.18,10.82-6.14,0-11.75-2.11-14.65-5a3.06,3.06,0,0,1,.46-4.62,3.36,3.36,0,0,1,4.82.27c1.51,1.65,5.08,3.43,9.1,3.43,5.08,0,7.86-1.85,7.92-4.49s-2.11-4.55-9-5.81c-8.91-1.71-12.67-5.34-12.67-10.42,0-6.73,6.79-10,13.52-10C3879.89,266.61,3884.51,268.59,3887.15,271.83Z" transform="translate(-25.81 -4.01)"/><path class="cls-1" d="M3607.18,298.16l-18.61-44.42a3.22,3.22,0,0,0-3.23-2.31,3.33,3.33,0,0,0-3.23,2.31L3563.56,298a3.42,3.42,0,0,0,3,4.94,3.46,3.46,0,0,0,3.17-2.11l3.76-9.24h0l2.32-5.67h0l2-5h0l7.59-18.51,7.56,18.83h0l4.17,10.34h0L3599,296h0l1.94,4.85a3.43,3.43,0,0,0,3.17,2.11A3.36,3.36,0,0,0,3607.18,298.16Z" transform="translate(-25.81 -4.01)"/><circle class="cls-1" cx="3559.54" cy="280.91" r="5.83"/></g><g id="NewGroupe0"><g id="NewGroup29-0-2" data-name="NewGroup29-0"><path class="cls-2" d="M1715.91,82.62c0,6.8,5,12.32,11.12,12.32s11.13-5.52,11.13-12.32-5-12.32-11.13-12.32-11.12,5.52-11.12,12.32Z" transform="translate(-25.81 -4.01)"/><path class="cls-3" d="M1784.09,292.66h0a105.53,105.53,0,0,0,6.41,23.59A133.9,133.9,0,0,0,1804.28,342a136.87,136.87,0,0,0,23.22,25.8,223.17,223.17,0,0,0,44.59,29.84,242.82,242.82,0,0,0,45.61,18.13h0a150.8,150.8,0,0,0,15.61,3.49,84.11,84.11,0,0,0,13.49,1.23,40.11,40.11,0,0,0,9.08-.91,24,24,0,0,0,4.08-1.33,17.6,17.6,0,0,0,3.79-2.25,14.35,14.35,0,0,0,5.2-8.58h0a28.15,28.15,0,0,0,.46-5.37,55.59,55.59,0,0,0-.54-7.35,131.38,131.38,0,0,0-3.55-16.7h0a296.48,296.48,0,0,0-13.25-37.23,374.44,374.44,0,0,0-34.64-63.6A261.67,261.67,0,0,0,1894.37,248a169.78,169.78,0,0,0-26.47-23.7h0a136,136,0,0,0-22-13,65.14,65.14,0,0,0-14-4.74l-16.22-29.43a19.19,19.19,0,0,1-1.73-4.28h0L1795.11,104A42.15,42.15,0,0,0,1797,91.51a42.66,42.66,0,0,0-1.35-10.63,45.28,45.28,0,0,0-8.05-16.25,57,57,0,0,0-21.75-16.86,71,71,0,0,0-29.23-6.17,72.25,72.25,0,0,0-22.81,3.65,64.21,64.21,0,0,0-14.71,7,52.94,52.94,0,0,0-16.41,16.6,44.4,44.4,0,0,0-4.76,10.71,42.37,42.37,0,0,0-1.71,11.9,41.66,41.66,0,0,0,.24,4.35,194.58,194.58,0,0,1-22.75,14.91,83.66,83.66,0,0,1-12.67,5.72,33,33,0,0,1-10.29,2,15,15,0,0,1-3.26-.34h0a31.55,31.55,0,0,0-7.2-.89,21.94,21.94,0,0,0-9.63,2.1,21.13,21.13,0,0,0-7.19,5.7h0a24.58,24.58,0,0,0-4.27,7.62,25.55,25.55,0,0,0-1.38,8.31,26.58,26.58,0,0,0,1.63,9.15,24.68,24.68,0,0,0,7.71,10.89,21.1,21.1,0,0,0,5.88,3.3,20,20,0,0,0,6.85,1.2c.44,0,.89,0,1.35,0h0a172.61,172.61,0,0,0,37.36-6.85h0c1.87-.55,4.13-1.1,6.66-1.65,4.43-.95,9.68-1.89,15.32-2.89,8.46-1.5,17.79-3.13,26.75-5.28,4.48-1.08,8.88-2.29,13.05-3.69a82.78,82.78,0,0,0,9.94-4c2.06.18,4.15.28,6.29.28s4.17-.1,6.21-.27c1.64,4.88,3.09,9.58,4.22,13.82a30.12,30.12,0,0,1,.76,5c.19,2.18.29,4.81.29,7.8,0,4.39-.21,9.55-.58,15.3-.64,10.08-1.78,22-3.13,35-2,19.51-4.52,41.5-6.51,63.79s-3.5,44.87-3.5,65.68c0,8.89.28,17.47.92,25.58h0a87.37,87.37,0,0,0,9,31.43A128.56,128.56,0,0,0,1758,426.26a175.72,175.72,0,0,0,28.13,28.63,194.91,194.91,0,0,0,31.27,20.85l22.51,50.77-32.63,24.82-30.7-9.44a11.63,11.63,0,0,0-8.75.79,13,13,0,0,0-4.4,3.73h0l-19.69,26a14.57,14.57,0,0,0-2.26,4.33,15.38,15.38,0,0,0-.74,4.71,15.05,15.05,0,0,0,3.49,9.74,12.78,12.78,0,0,0,4.08,3.2,11.72,11.72,0,0,0,5.17,1.2h81.7a12,12,0,0,0,8.35-3.46,7.75,7.75,0,0,0,1.74-2.56l27.1-64.18a15,15,0,0,0,3.11-9.21,16.08,16.08,0,0,0-.15-2.21v0l-3.13-21.44c.93,0,1.86.05,2.79.05,9,0,17.65-1.63,25.3-5.45a43,43,0,0,0,10.58-7.43c1.66-1.59,11.4-10,18.25-20.33,6.29-9.51,6.48-10.09,7.76-14.29" transform="translate(-25.81 -4.01)"/><line class="cls-4" x1="1914.83" y1="428.13" x2="1914.4" y2="429.26"/></g></g><g id="NewGroupe0-2" data-name="NewGroupe0"><g id="NewGroup29-0-3" data-name="NewGroup29-0"><path class="cls-5" d="M2768.35,238.19c0,5.68,5,10.28,11.12,10.28s11.13-4.6,11.13-10.28-5-10.29-11.13-10.29-11.12,4.61-11.12,10.29Z" transform="translate(-25.81 -4.01)"/><path class="cls-6" d="M2824.57,368.11h0a45.62,45.62,0,0,0,5.8,13.63,75.19,75.19,0,0,0,12.46,14.89,107.25,107.25,0,0,0,21,14.9,232.19,232.19,0,0,0,40.32,17.24,304,304,0,0,0,41.25,10.48h0c5,.87,9.71,1.55,14.11,2a118.78,118.78,0,0,0,12.2.71,55.54,55.54,0,0,0,8.21-.53,30.9,30.9,0,0,0,3.69-.76,19,19,0,0,0,3.43-1.31,11.34,11.34,0,0,0,2.94-2.08,7.06,7.06,0,0,0,1.76-2.87h0a10.9,10.9,0,0,0,.42-3.11,20.5,20.5,0,0,0-.5-4.24,52.34,52.34,0,0,0-3.2-9.65h0a136.92,136.92,0,0,0-12-21.51,212.72,212.72,0,0,0-31.32-36.74,187.56,187.56,0,0,0-20.85-16.89,152.72,152.72,0,0,0-23.94-13.69h0a151.43,151.43,0,0,0-19.85-7.51,84.61,84.61,0,0,0-12.71-2.74l-14.67-17a9.23,9.23,0,0,1-1.56-2.47h0l-17-39.77c1.1-2.29,1-5.07,1-7.55a22.55,22.55,0,0,0-.56-5.78,58.56,58.56,0,0,0-3.69-11.11c-4.11-9.12-9.53-19.14-18.9-23.24a64.73,64.73,0,0,0-25.91-5.73c-7.28,0-21,1-27,3.54-5.68,2.36-10.08,5.17-16.37,9.83-6.76,5-8.29,13.61-10.88,18.25a69.52,69.52,0,0,0-3.68,7.72,16.39,16.39,0,0,0-1.54,6.88,14.92,14.92,0,0,0,.21,2.51,203.27,203.27,0,0,1-20.57,8.61,99.24,99.24,0,0,1-11.46,3.31,44.22,44.22,0,0,1-9.31,1.16,19.7,19.7,0,0,1-2.94-.19h0a44.09,44.09,0,0,0-6.51-.51,29.46,29.46,0,0,0-8.72,1.21,20.17,20.17,0,0,0-6.49,3.29h0a14,14,0,0,0-3.86,4.41,10,10,0,0,0-1.25,4.8,10.54,10.54,0,0,0,1.47,5.28,16.42,16.42,0,0,0,7,6.29,23.59,23.59,0,0,0,5.31,1.91,27.5,27.5,0,0,0,6.19.69l1.22,0h0a236.72,236.72,0,0,0,33.78-4h0c1.69-.32,3.73-.64,6-.95,4-.55,8.76-1.09,13.85-1.67,7.66-.87,16.09-1.81,24.2-3.05,4-.63,8-1.32,11.79-2.13,3.16-.68,6.17-1.44,9-2.32,1.87.1,3.76.16,5.69.16s3.77-.06,5.62-.15c1.48,2.81,2.79,5.53,3.81,8a12,12,0,0,1,.69,2.87,34.14,34.14,0,0,1,.26,4.5c0,2.53-.19,5.52-.52,8.84-.58,5.82-1.61,12.7-2.83,20.21-1.83,11.27-4.09,24-5.89,36.85s-3.16,25.92-3.16,37.94a123,123,0,0,0,.82,14.78h0c.77,6.24,3.72,12.34,8.17,18.15A79.49,79.49,0,0,0,2801,445.29a145.26,145.26,0,0,0,25.43,16.54,203.28,203.28,0,0,0,28.28,12l20.36,29.33-29.51,14.34-27.77-5.45a15.89,15.89,0,0,0-3.07-.3,15.65,15.65,0,0,0-4.83.75,11.81,11.81,0,0,0-4,2.16h0l-17.81,15a8.19,8.19,0,0,0-2,2.5,5.89,5.89,0,0,0-.66,2.72,7.13,7.13,0,0,0,3.15,5.62,12,12,0,0,0,3.69,1.85,15.44,15.44,0,0,0,4.68.69h73.87a14.53,14.53,0,0,0,7.55-2,5,5,0,0,0,1.58-1.48l24.51-37.08a7,7,0,0,0,2.81-5.32,6,6,0,0,0-.14-1.27v0l-2.83-12.39,2.52,0a75.7,75.7,0,0,0,22.89-3.14,44,44,0,0,0,9.56-4.29c1.5-.92,10.31-5.77,16.5-11.75,5.7-5.49,5.86-5.83,7-8.25" transform="translate(-25.81 -4.01)"/></g><line class="cls-7" x1="2940.73" y1="445.34" x2="2940.73" y2="445.34"/></g><g id="NewGroupe0-3" data-name="NewGroupe0"><g id="NewGroup29-0-4" data-name="NewGroup29-0"><path class="cls-8" d="M2309.79,277.37a100.63,100.63,0,0,0-2.46-12.15,222.18,222.18,0,0,0-9.18-27.1,277.07,277.07,0,0,0-24-46.28,190.19,190.19,0,0,0-16-21.28,119.79,119.79,0,0,0-18.33-17.24h0a93.44,93.44,0,0,0-15.21-9.46,43.06,43.06,0,0,0-9.73-3.45L2203.7,119a14.91,14.91,0,0,1-1.2-3.12h0l-13-50.09a32.11,32.11,0,0,0,.37-16.79,33.74,33.74,0,0,0-5.57-11.83,39.85,39.85,0,0,0-15.07-12.26A46.94,46.94,0,0,0,2149,20.41a47.56,47.56,0,0,0-15.79,2.65A44.06,44.06,0,0,0,2123,28.19a37.81,37.81,0,0,0-11.37,12.08,33.58,33.58,0,0,0-3.29,7.79,32.34,32.34,0,0,0-1.18,8.67c0,1.06.06,2.12.16,3.16a133.8,133.8,0,0,1-15.75,10.85,56.65,56.65,0,0,1-8.78,4.16,21.59,21.59,0,0,1-7.12,1.47,9.43,9.43,0,0,1-2.25-.25h0a20.76,20.76,0,0,0-5-.64,14.51,14.51,0,0,0-6.67,1.52,14.92,14.92,0,0,0-5,4.15h0a18.14,18.14,0,0,0-3,5.55,19.16,19.16,0,0,0-1,6A20.14,20.14,0,0,0,2054,99.4a18,18,0,0,0,5.34,7.93,14.66,14.66,0,0,0,4.07,2.4,13.26,13.26,0,0,0,4.75.87c.3,0,.62,0,.93,0h0a114,114,0,0,0,25.87-5h0c1.3-.4,2.86-.81,4.61-1.2,3.07-.7,6.71-1.38,10.61-2.1,5.86-1.09,12.32-2.29,18.53-3.85,3.1-.78,6.14-1.66,9-2.68a57.78,57.78,0,0,0,6.88-2.92c1.43.13,2.88.2,4.36.2s2.89-.07,4.31-.19c1.13,3.54,2.13,7,2.91,10.05a23.72,23.72,0,0,1,.53,3.62c.13,1.58.2,3.49.2,5.67,0,3.19-.14,7-.4,11.14-.44,7.33-1.23,16-2.16,25.45-1.41,14.2-3.13,30.2-4.52,46.42s-2.42,32.65-2.42,47.8c0,6.47.19,12.71.64,18.62h0a66.15,66.15,0,0,0,6.25,22.87,94.49,94.49,0,0,0,9.47,15.84,125.29,125.29,0,0,0,19.48,20.84,135.28,135.28,0,0,0,21.65,15.17l15.59,36.94-22.59,18.06-21.27-6.86a7.65,7.65,0,0,0-2.35-.38,7.78,7.78,0,0,0-3.7,1,9.2,9.2,0,0,0-3.05,2.71h0l-13.64,18.89a10.54,10.54,0,0,0-1.56,3.15,11.56,11.56,0,0,0-.52,3.43,11.35,11.35,0,0,0,2.42,7.08,8.84,8.84,0,0,0,2.83,2.33,7.85,7.85,0,0,0,3.58.87h56.57A8.09,8.09,0,0,0,2223,421a5.54,5.54,0,0,0,1.21-1.86l18.77-46.7a11.32,11.32,0,0,0,2.15-6.7,12.1,12.1,0,0,0-.1-1.61v0l-2.17-15.61c.65,0,1.29,0,1.93,0a37.34,37.34,0,0,0,17.53-4,30.09,30.09,0,0,0,7.32-5.41c1.15-1.16,7.9-7.26,12.64-14.79,4.36-6.92,7.43-15.55,9.3-28.31,1,.07,2,.1,3,.1a26.75,26.75,0,0,0,6.29-.66,15.66,15.66,0,0,0,2.82-1,11.43,11.43,0,0,0,2.62-1.64,10.29,10.29,0,0,0,2.26-2.63,10.88,10.88,0,0,0,1.35-3.61h0a22,22,0,0,0,.31-3.91A42.74,42.74,0,0,0,2309.79,277.37Zm-35.43,17.69a2.39,2.39,0,0,1-.66-.09,166.22,166.22,0,0,1-32-13.39,155.88,155.88,0,0,1-31.35-22.05,100.9,100.9,0,0,1-16.46-19.23,102.27,102.27,0,0,1-9.77-19.2,84.83,84.83,0,0,1-4.25-15.61,2,2,0,0,1,1.71-2.35l.66-.09a2,2,0,0,1,2.26,1.65,79.38,79.38,0,0,0,4,14.74,94.31,94.31,0,0,0,25,36.64,150.36,150.36,0,0,0,30.4,21.37,161.07,161.07,0,0,0,31.07,13,2.35,2.35,0,0,1-.6,4.62Z" transform="translate(-25.81 -4.01)"/></g><path class="cls-8" d="M2475.87,423.5a18,18,0,0,1-16.6-11.06l-19.35-48.38H2315.85l-19.7,48.38a18.13,18.13,0,0,1-16.59,11.06c-13.14,0-21.43-13.48-15.91-25.92l97.12-231.91c3.46-8.29,9.33-12.1,16.94-12.1,7.95,0,13.82,3.81,16.93,12.1l97.47,232.6C2497.3,411.06,2489,423.5,2475.87,423.5Zm-48-89.17-49.42-123-50.46,123Z" transform="translate(-25.81 -4.01)"/></g><g id="NewGroupe0-4" data-name="NewGroupe0"><g id="NewGroup29-0-5" data-name="NewGroup29-0"><polygon class="cls-9" points="3106.89 236.7 3106.89 236.7 3106.89 236.7 3106.89 236.7"/><path class="cls-9" d="M3471.78,427.76a64.61,64.61,0,0,0-3.55-11.27A163.37,163.37,0,0,0,3455,391.36a245.06,245.06,0,0,0-34.64-42.91,209.5,209.5,0,0,0-23.06-19.73,165.56,165.56,0,0,0-26.47-16h0a161.81,161.81,0,0,0-22-8.78,89.13,89.13,0,0,0-14-3.2l-16.22-19.85a11.25,11.25,0,0,1-1.73-2.89h0l-7.52-24.95-9-25.17a34.6,34.6,0,0,0,.53-20.82,39.55,39.55,0,0,0-8.05-14.67,56.62,56.62,0,0,0-21.76-15.22,77.41,77.41,0,0,0-29.23-5.57,79.76,79.76,0,0,0-22.8,3.29,67.4,67.4,0,0,0-14.71,6.37,50.6,50.6,0,0,0-16.42,15,38.63,38.63,0,0,0-4.75,9.67,34.79,34.79,0,0,0-1.71,10.74,34,34,0,0,0,.23,3.93A196,196,0,0,1,3158.91,234a88,88,0,0,1-12.67,5.17A36,36,0,0,1,3136,241a15.56,15.56,0,0,1-3.24-.31h0a34.79,34.79,0,0,0-7.19-.8,24.1,24.1,0,0,0-9.64,1.89,21,21,0,0,0-7.18,5.15h0a21.63,21.63,0,0,0-4.27,6.88,21,21,0,0,0-1.38,7.5,22.1,22.1,0,0,0,1.62,8.26,22.53,22.53,0,0,0,7.72,9.83,21.42,21.42,0,0,0,5.88,3,22,22,0,0,0,6.85,1.08c.44,0,.89,0,1.34,0h0a188.81,188.81,0,0,0,37.36-6.18h0c1.88-.5,4.14-1,6.67-1.49,4.43-.86,9.68-1.7,15.32-2.6,8.46-1.36,17.79-2.83,26.75-4.77,4.48-1,8.87-2.06,13-3.33a89.14,89.14,0,0,0,9.93-3.62c2.07.16,4.16.25,6.29.25s4.18-.09,6.22-.24c.94,2.51,1.8,5,2.59,7.33,0,.18.06.35.08.53a42,42,0,0,1,.29,5.26c0,3-.21,6.45-.58,10.33-.64,6.8-1.78,14.83-3.13,23.61-2,13.16-4.52,28-6.51,43s-3.5,30.28-3.5,44.32a149.47,149.47,0,0,0,.92,17.27h0c.85,7.29,4.11,14.42,9,21.2A90,90,0,0,0,3260.9,449,159.41,159.41,0,0,0,3289,468.36a219.71,219.71,0,0,0,31.27,14.07l22.51,34.26-32.63,16.75-30.71-6.37a16.84,16.84,0,0,0-3.4-.35,16.61,16.61,0,0,0-5.34.88,13.08,13.08,0,0,0-4.4,2.52h0l-19.7,17.51a9.4,9.4,0,0,0-2.25,2.92,7.38,7.38,0,0,0-.74,3.18,8.48,8.48,0,0,0,3.49,6.57,13.18,13.18,0,0,0,4.08,2.16,16.71,16.71,0,0,0,5.17.81h81.7a15.54,15.54,0,0,0,8.35-2.33,5.86,5.86,0,0,0,1.74-1.73l27.1-43.31a8.29,8.29,0,0,0,3.11-6.22,7.46,7.46,0,0,0-.15-1.49v0l-3.13-14.46q1.39,0,2.79,0a79.83,79.83,0,0,0,25.3-3.67,47.5,47.5,0,0,0,10.58-5c1.66-1.07,11.4-6.74,18.25-13.72,6.29-6.41,10.74-14.41,13.44-26.25,1.46.07,2.88.1,4.26.1a58.63,58.63,0,0,0,9.08-.62,31.42,31.42,0,0,0,4.08-.9,19.37,19.37,0,0,0,3.79-1.52,12.34,12.34,0,0,0,3.25-2.43,8.25,8.25,0,0,0,2-3.35h0a13,13,0,0,0,.46-3.62A25.46,25.46,0,0,0,3471.78,427.76Zm-47.29,14.95a4,4,0,0,1-3.88,2.27,5.39,5.39,0,0,1-1-.09,325.1,325.1,0,0,1-46.33-12.43,252.8,252.8,0,0,1-45.38-20.5A122.33,122.33,0,0,1,3304,394a90.5,90.5,0,0,1-14.25-18,59.27,59.27,0,0,1-6-13.86,2.47,2.47,0,0,1,2.09-3.12l2.33-.29a3.18,3.18,0,0,1,3.44,2.29,54,54,0,0,0,5.46,12.58,84.76,84.76,0,0,0,13.32,16.8,114.84,114.84,0,0,0,22.51,16.86A244.54,244.54,0,0,0,3376.68,427a315.71,315.71,0,0,0,44.9,12C3423.72,439.48,3425,441.11,3424.49,442.71Z" transform="translate(-25.81 -4.01)"/></g></g><g id="NewGroupe0-5" data-name="NewGroupe0"><g id="NewGroup29-0-6" data-name="NewGroup29-0"><path class="cls-1" d="M113.78,790.34a7.93,7.93,0,1,0,7.92-7.92,7.93,7.93,0,0,0-7.92,7.92Z" transform="translate(-25.81 -4.01)"/><polygon class="cls-1" points="260.54 935.58 260.54 935.58 260.54 935.58 260.54 935.58 260.54 935.58"/><path class="cls-1" d="M287.47,942.65A127.09,127.09,0,0,0,278,923.43a185.8,185.8,0,0,0-24.67-32.84A152.29,152.29,0,0,0,237,875.49a116.65,116.65,0,0,0-18.84-12.23h0a111,111,0,0,0-15.63-6.72,59.78,59.78,0,0,0-10-2.44l-11.55-15.19a9.17,9.17,0,0,1-1.23-2.22h0l-13.41-35.54a16.21,16.21,0,0,0,1.34-6.43c0-1.88-.76-1.38-1-5.49-.17-3.48,0-4.27-3-10.27-2.42-4.85-7-10-15-14-5.84-2.93-16.48-6-24-6-5.73,0-13,1.78-18,3-3.77.91-9.19,4.88-12,7-5.07,3.82-6.41,8-9,12-1.23,1.87-2,5.66-2.77,7.62a16.39,16.39,0,0,0-1.21,6.14,16.78,16.78,0,0,0,.16,2.25,151.23,151.23,0,0,1-16.19,7.7,73.14,73.14,0,0,1-9,3,31.17,31.17,0,0,1-7.32,1,14.48,14.48,0,0,1-2.32-.17h0a30.06,30.06,0,0,0-5.13-.46A21,21,0,0,0,35,809.11a15.42,15.42,0,0,0-5.12,2.95h0A12.38,12.38,0,0,0,26.79,816a10.11,10.11,0,0,0-1,4.29A10.35,10.35,0,0,0,27,825a13.84,13.84,0,0,0,5.49,5.63,17,17,0,0,0,4.19,1.7,19.3,19.3,0,0,0,4.88.62l.95,0h0a164.8,164.8,0,0,0,26.6-3.54h0c1.33-.28,2.94-.57,4.74-.85,3.15-.49,6.89-1,10.91-1.49,6-.77,12.67-1.62,19.05-2.73,3.19-.56,6.31-1.18,9.28-1.9,2.49-.61,4.86-1.29,7.08-2.07,1.47.09,3,.14,4.48.14s3,0,4.42-.14c1.17,2.52,2.2,4.95,3,7.13a11.55,11.55,0,0,1,.55,2.57,35.71,35.71,0,0,1,.2,4c0,2.26-.14,4.93-.41,7.9-.45,5.2-1.26,11.35-2.22,18.06-1.45,10.07-3.22,21.43-4.64,32.93A281.49,281.49,0,0,0,123,926.88a121.8,121.8,0,0,0,.65,13.22h0a36.27,36.27,0,0,0,6.43,16.23,67.9,67.9,0,0,0,9.73,11.24,114,114,0,0,0,20,14.78,150,150,0,0,0,22.27,10.76l16,26.22-23.23,12.81-21.86-4.87a11,11,0,0,0-6.22.41,9.13,9.13,0,0,0-3.14,1.92h0l-14,13.4a7.11,7.11,0,0,0-1.61,2.24,5.86,5.86,0,0,0-.53,2.43,6.64,6.64,0,0,0,2.49,5,9.33,9.33,0,0,0,2.9,1.66,11.1,11.1,0,0,0,3.68.62H194.8a10.47,10.47,0,0,0,5.95-1.79,4.43,4.43,0,0,0,1.24-1.32l19.3-33.14a6.52,6.52,0,0,0,2.21-4.75,6.12,6.12,0,0,0-.11-1.14v0l-2.23-11.07,2,0a53.14,53.14,0,0,0,18-2.81,32.75,32.75,0,0,0,7.53-3.84,26.24,26.24,0,0,0,5.9-5.61c1.43-1.88.69-4.34-1.65-5.49a5.7,5.7,0,0,0-6.83,1.33,17.34,17.34,0,0,1-3.92,3.73,24.45,24.45,0,0,1-8.16,3.52,45.68,45.68,0,0,1-10.89,1.19,71,71,0,0,1-7.27-.39h0a5.74,5.74,0,0,0-4,1,3.56,3.56,0,0,0-1.55,3.57l3.17,15.74a4.13,4.13,0,0,0-.88,1L193.86,1047H138.51l12.45-11.9,21.72,4.84h0a11,11,0,0,0,2.42.26,10.68,10.68,0,0,0,5.13-1.27h0l24.19-13.35h0a8.07,8.07,0,0,0,2.91-2.65,6.06,6.06,0,0,0,.09-6.56l-17.12-28a4.63,4.63,0,0,0-2.36-1.86,140.9,140.9,0,0,1-19.84-9.23c-9.43-5.32-17.82-11.58-23.93-18.13a49.23,49.23,0,0,1-7.35-9.94,26.74,26.74,0,0,1-3.24-9.79h0a115.05,115.05,0,0,1-.62-12.52,242.6,242.6,0,0,1,1.51-25c1.36-13,3.42-26.18,5.13-38,.86-5.92,1.64-11.48,2.21-16.5a124.5,124.5,0,0,0,.92-13.3,41.68,41.68,0,0,0-.25-4.79,18.13,18.13,0,0,0-.9-4.06h0c-1.23-3.33-2.85-7-4.63-10.63a5.24,5.24,0,0,0-5.35-2.5,58.71,58.71,0,0,1-7,.41c-1.64,0-3.25-.07-4.84-.2a6.1,6.1,0,0,0-2.62.37,73.38,73.38,0,0,1-11.3,3.05c-6.53,1.32-14,2.32-21,3.21-3.49.45-6.86.88-10,1.32s-5.93.89-8.41,1.42h0A154.1,154.1,0,0,1,41.91,825h-.38a6.81,6.81,0,0,1-2.31-.39,5.6,5.6,0,0,1-2.52-1.76,4.14,4.14,0,0,1-1-2.54,3.36,3.36,0,0,1,.33-1.44,4.31,4.31,0,0,1,1.09-1.4h0a5.08,5.08,0,0,1,1.74-1,8.64,8.64,0,0,1,2.9-.42,17.88,17.88,0,0,1,3.07.29h0a26.35,26.35,0,0,0,4.36.34,43,43,0,0,0,10.24-1.39,95.68,95.68,0,0,0,15.72-5.62c5.2-2.33,10.66-4.41,14.9-7.56,1.5-1.11,1-1.5.5-3.11-.33-1,0-3,0-4a28,28,0,0,1,.8-5.62c.67-1.87.7-3.38,2.2-5.38,3-4,8-10,13-12,4.83-1.94,12.73-4,19-4,4.77,0,11.09,2.52,16,4a18.67,18.67,0,0,1,8,5,41.73,41.73,0,0,1,6,10c.77,1.69.86,2.88,1.35,4.08a9.81,9.81,0,0,1,.73,3.68,10.16,10.16,0,0,1-1.22,4.74,3.22,3.22,0,0,0-.18,2.71L170.18,839h0a16,16,0,0,0,2.26,4.06h0l12.76,16.79a5.17,5.17,0,0,0,3.69,1.88,44.33,44.33,0,0,1,9.81,2.2A100.19,100.19,0,0,1,212.75,870h0a118.15,118.15,0,0,1,27.16,19.85,175.36,175.36,0,0,1,29.7,38,121.3,121.3,0,0,1,8.13,16.57,53.9,53.9,0,0,1,2.06,6.35,19.53,19.53,0,0,1,.65,4.35,5.4,5.4,0,0,1-.05.79,2.45,2.45,0,0,1-.4.15,11.79,11.79,0,0,1-2.18.42,29.76,29.76,0,0,1-3.53.18,70.2,70.2,0,0,1-8.15-.55c-3.1-.37-6.52-.92-10.17-1.65h0a205.92,205.92,0,0,1-41.17-13.12,144.62,144.62,0,0,1-19.28-10.16,76.4,76.4,0,0,1-14.76-11.85,57.94,57.94,0,0,1-8.66-11.73,36.63,36.63,0,0,1-3.86-10.27c-.45-2.17-3-3.65-5.71-3.29s-4.54,2.41-4.1,4.59h0A43.93,43.93,0,0,0,163,910.76a66,66,0,0,0,9.81,13.31,85.43,85.43,0,0,0,16.54,13.32,171.49,171.49,0,0,0,31.74,15.4,215.69,215.69,0,0,0,32.48,9.37h0c3.92.78,7.64,1.39,11.11,1.8a82.62,82.62,0,0,0,9.61.63,38.54,38.54,0,0,0,6.46-.47,22.29,22.29,0,0,0,2.9-.68,13.2,13.2,0,0,0,2.7-1.17,9,9,0,0,0,2.32-1.86,6.56,6.56,0,0,0,1.39-2.56h0a11.17,11.17,0,0,0,.33-2.77,21.88,21.88,0,0,0-.39-3.8,51.71,51.71,0,0,0-2.53-8.62Z" transform="translate(-25.81 -4.01)"/><path class="cls-1" d="M257.07,969.17a5,5,0,1,0,5,5,5,5,0,0,0-5-5Z" transform="translate(-25.81 -4.01)"/></g></g><g id="text-3" data-name="text"><path class="cls-1" d="M287,1055.73a3.43,3.43,0,0,1-3.17-2.11l-3.69-9.24H256.46l-3.76,9.24a3.48,3.48,0,0,1-3.17,2.11,3.43,3.43,0,0,1-3-5L265,1006.5a3.32,3.32,0,0,1,3.23-2.31,3.21,3.21,0,0,1,3.23,2.31l18.61,44.41A3.37,3.37,0,0,1,287,1055.73Zm-9.17-17-9.44-23.49-9.63,23.49Z" transform="translate(-25.81 -4.01)"/><path class="cls-1" d="M299.29,1004.19a3.19,3.19,0,0,1,3.3,3.3v36c0,3.3,1.39,5.61,3.3,5.61h1.65a3,3,0,0,1,3,3.3c0,1.91-1.85,3.3-4.49,3.3h-.13c-5.81,0-9.9-5.08-9.9-12.21v-36A3.19,3.19,0,0,1,299.29,1004.19Z" transform="translate(-25.81 -4.01)"/><path class="cls-1" d="M353.47,1037.65A17.91,17.91,0,0,1,335.26,1056c-10.3,0-18.08-7.92-18.15-18.34v-30.1a3.37,3.37,0,0,1,6.73,0v17.82a16.28,16.28,0,0,1,12.74-6C346.21,1019.37,353.47,1027.22,353.47,1037.65Zm-6.46,0c0-7.06-5.09-12.34-11.75-12.34s-11.68,5.28-11.68,12.34,5,12.4,11.68,12.4S347,1044.71,347,1037.65Z" transform="translate(-25.81 -4.01)"/><path class="cls-1" d="M398,1037.71v14.72a3.37,3.37,0,1,1-6.73,0V1050a16.27,16.27,0,0,1-12.74,6c-9.63,0-16.89-7.85-16.89-18.28a17.91,17.91,0,0,1,18.21-18.34C390.17,1019.37,398,1027.29,398,1037.71Zm-6.46,0c0-7.06-5-12.4-11.69-12.4s-11.74,5.34-11.74,12.4,5.08,12.34,11.74,12.34S391.56,1044.77,391.56,1037.71Z" transform="translate(-25.81 -4.01)"/><path class="cls-1" d="M426.27,1052.43c0,1.91-1.65,3.3-3.89,3.3h-1.19c-6.6,0-11.62-5.48-11.62-12.8v-16.3h-3a2.85,2.85,0,1,1,0-5.68h3v-9.5a3.3,3.3,0,1,1,6.6,0v9.5h5.61a2.85,2.85,0,1,1,0,5.68h-5.61v16.3c0,3.56,2.18,6.2,5,6.2h2.24A3,3,0,0,1,426.27,1052.43Z" transform="translate(-25.81 -4.01)"/><path class="cls-1" d="M459.6,1023.59c-.46,1.85-1.92,2.38-3.63,2-8.45-1.65-14.85,1.52-14.85,7.59v19.27a3.3,3.3,0,0,1-6.6,0v-29.5a3,3,0,0,1,3.3-3.3c2.18,0,3.3,1.12,3.3,3.3v1.25a14.72,14.72,0,0,1,11.09-5C457.49,1019.23,460.19,1021.21,459.6,1023.59Z" transform="translate(-25.81 -4.01)"/><path class="cls-1" d="M498.47,1037.71c0,10.69-7.52,18.28-18.15,18.28s-18.21-7.59-18.21-18.28,7.52-18.34,18.21-18.34S498.41,1027,498.47,1037.71Zm-29.89,0c0,7.26,4.88,12.34,11.74,12.34S492,1045,492,1037.71s-4.82-12.4-11.69-12.4S468.58,1030.45,468.58,1037.71Z" transform="translate(-25.81 -4.01)"/><path class="cls-1" d="M534.24,1024.58c1.19,1.45,1.13,3.1-.26,4.16a4.14,4.14,0,0,1-5-.73c-2.24-2.11-4.62-2.77-8-2.77-3.9,0-6.93,1.39-6.93,3.89s1.38,3.9,8.51,5.35c9.9,2,13.2,5.48,13.2,10.69,0,6-4.89,10.82-14.19,10.82-6.14,0-11.75-2.11-14.65-5a3.06,3.06,0,0,1,.46-4.62,3.35,3.35,0,0,1,4.82.26c1.52,1.65,5.08,3.43,9.11,3.43,5.08,0,7.85-1.84,7.91-4.48s-2.11-4.56-9-5.81c-8.91-1.72-12.67-5.35-12.67-10.43,0-6.73,6.8-10,13.53-10C527,1019.37,531.6,1021.35,534.24,1024.58Z" transform="translate(-25.81 -4.01)"/><path class="cls-1" d="M570.08,1024.58c1.19,1.45,1.12,3.1-.26,4.16a4.14,4.14,0,0,1-5-.73c-2.25-2.11-4.62-2.77-8-2.77-3.89,0-6.93,1.39-6.93,3.89s1.39,3.9,8.52,5.35c9.9,2,13.2,5.48,13.2,10.69,0,6-4.89,10.82-14.19,10.82-6.14,0-11.75-2.11-14.65-5a3.06,3.06,0,0,1,.46-4.62,3.35,3.35,0,0,1,4.82.26c1.51,1.65,5.08,3.43,9.1,3.43,5.08,0,7.86-1.84,7.92-4.48s-2.11-4.56-9-5.81c-8.91-1.72-12.67-5.35-12.67-10.43,0-6.73,6.79-10,13.52-10C562.82,1019.37,567.44,1021.35,570.08,1024.58Z" transform="translate(-25.81 -4.01)"/></g><path class="cls-10" d="M868.07,9.59a7.73,7.73,0,0,1,8,8v87.8c0,8,3.34,13.67,8,13.67h4c4.14,0,7.16,3.37,7.16,8s-4.45,8-10.81,8H884c-14,0-23.85-12.38-23.85-29.75V17.63A7.73,7.73,0,0,1,868.07,9.59Z" transform="translate(-25.81 -4.01)"/><path class="cls-10" d="M998.64,91.12c0,25.41-18.93,44.7-43.89,44.7-24.81,0-43.58-19.29-43.74-44.7V17.79a8.11,8.11,0,1,1,16.22,0V61.21a39,39,0,0,1,30.7-14.64C981.14,46.57,998.64,65.71,998.64,91.12Zm-15.59,0c0-17.21-12.25-30.07-28.3-30.07S926.6,73.91,926.6,91.12s12.08,30.23,28.15,30.23S983.05,108.32,983.05,91.12Z" transform="translate(-25.81 -4.01)"/><path class="cls-10" d="M1106,91.28v35.86a8.11,8.11,0,1,1-16.22,0v-6a39.06,39.06,0,0,1-30.69,14.63c-23.22,0-40.71-19.13-40.71-44.54s18.92-44.71,43.89-44.71C1087.06,46.57,1105.82,65.87,1106,91.28Zm-15.58,0c0-17.21-12.09-30.23-28.15-30.23s-28.31,13-28.31,30.23,12.25,30.07,28.31,30.07S1090.4,108.49,1090.4,91.28Z" transform="translate(-25.81 -4.01)"/><path class="cls-10" d="M1174.05,127.14c0,4.66-4,8-9.39,8h-2.86c-15.9,0-28-13.35-28-31.2V64.26h-7.31c-4.45,0-7.47-2.89-7.47-6.75,0-4.18,3-7.08,7.47-7.08h7.31V27.28a8,8,0,1,1,15.91,0V50.43h13.51c4.45,0,7.48,2.9,7.48,7.08,0,3.86-3,6.75-7.48,6.75h-13.51V104c0,8.69,5.24,15.12,12.08,15.12h5.41C1171,119.1,1174.05,122.47,1174.05,127.14Z" transform="translate(-25.81 -4.01)"/><path class="cls-10" d="M1254.35,56.87c-1.11,4.5-4.61,5.79-8.74,4.82-20.35-4-35.78,3.7-35.78,18.49v47c0,5.15-2.7,8-7.95,8-5.09,0-8-2.73-8-8V55.26c0-5.15,2.86-8,8-8,5.25,0,7.95,2.73,7.95,8v3.06a35.24,35.24,0,0,1,26.72-12.07C1249.27,46.25,1255.79,51.08,1254.35,56.87Z" transform="translate(-25.81 -4.01)"/><path class="cls-10" d="M1348,91.28c0,26.05-18.13,44.54-43.73,44.54s-43.88-18.49-43.88-44.54c0-26.21,18.13-44.71,43.88-44.71C1329.74,46.57,1347.87,65.07,1348,91.28Zm-72,0c0,17.69,11.77,30.07,28.3,30.07s28.15-12.38,28.15-30.07-11.6-30.23-28.15-30.23S1276,73.59,1276,91.28Z" transform="translate(-25.81 -4.01)"/><path class="cls-10" d="M1434.22,59.28c2.86,3.54,2.7,7.56-.64,10.13-3.49,2.41-8.74,1.29-11.92-1.77-5.41-5.14-11.13-6.75-19.24-6.75-9.39,0-16.7,3.37-16.7,9.48,0,5.95,3.34,9.49,20.52,13,23.85,4.82,31.8,13.35,31.8,26.05,0,14.63-11.77,26.37-34.19,26.37-14.79,0-28.31-5.14-35.3-12.22-3.18-3.38-2.55-8.36,1.11-11.25,4.14-3.38,8.59-2.58,11.61.64,3.66,4,12.24,8.36,21.94,8.36,12.24,0,18.93-4.5,19.08-10.93s-5.08-11.1-21.62-14.16c-21.47-4.18-30.53-13-30.53-25.4,0-16.4,16.38-24.29,32.59-24.29C1416.73,46.57,1427.86,51.4,1434.22,59.28Z" transform="translate(-25.81 -4.01)"/><path class="cls-10" d="M1520.57,59.28c2.87,3.54,2.71,7.56-.63,10.13-3.5,2.41-8.75,1.29-11.93-1.77-5.4-5.14-11.13-6.75-19.24-6.75-9.38,0-16.69,3.37-16.69,9.48,0,5.95,3.33,9.49,20.51,13,23.85,4.82,31.8,13.35,31.8,26.05,0,14.63-11.77,26.37-34.19,26.37-14.79,0-28.3-5.14-35.3-12.22-3.18-3.38-2.54-8.36,1.11-11.25,4.14-3.38,8.59-2.58,11.61.64,3.66,4,12.24,8.36,22,8.36,12.24,0,18.92-4.5,19.08-10.93s-5.09-11.1-21.63-14.16c-21.47-4.18-30.53-13-30.53-25.4,0-16.4,16.38-24.29,32.6-24.29C1503.09,46.57,1514.22,51.4,1520.57,59.28Z" transform="translate(-25.81 -4.01)"/><path class="cls-10" d="M846,123.44,801.12,15.22c-1.43-3.86-4.13-5.63-7.79-5.63-3.5,0-6.2,1.77-7.79,5.63L758.42,80.7c.47.17.94.35,1.43.55a69.51,69.51,0,0,1,11,5.88h0c.6.38,1.19.77,1.78,1.17l21-51.7L816.39,94h-36.8a34.59,34.59,0,0,1,4.51,4.23,65,65,0,0,1,8.77,9.77H822l8.91,22.27a8.14,8.14,0,0,0,7.63,5C844.53,135.3,848.35,129.39,846,123.44Z" transform="translate(-25.81 -4.01)"/><path class="cls-11" d="M690.79,24.55A5.57,5.57,0,1,0,696.36,19a5.57,5.57,0,0,0-5.57,5.57Z" transform="translate(-25.81 -4.01)"/><path class="cls-12" d="M726.91,119.48h0a44.44,44.44,0,0,0,3.21,10.66,58.53,58.53,0,0,0,6.9,11.65,64.72,64.72,0,0,0,11.62,11.66A113.09,113.09,0,0,0,771,166.93a129.57,129.57,0,0,0,22.83,8.2h0c2.75.68,5.37,1.21,7.81,1.58a46.7,46.7,0,0,0,6.75.55,22.45,22.45,0,0,0,4.55-.41,12.62,12.62,0,0,0,2-.6,8.73,8.73,0,0,0,1.9-1,6.82,6.82,0,0,0,1.63-1.63,6.4,6.4,0,0,0,1-2.25h0a12.28,12.28,0,0,0,.23-2.43,22.08,22.08,0,0,0-.28-3.32,53.77,53.77,0,0,0-1.77-7.55h0A125.2,125.2,0,0,0,811,141.23a165,165,0,0,0-17.34-28.75,121.52,121.52,0,0,0-11.55-13.21,82.9,82.9,0,0,0-13.25-10.71h0a70.79,70.79,0,0,0-11-5.88,35.87,35.87,0,0,0-7-2.14l-8.12-13.3a8.79,8.79,0,0,1-.87-1.93h0l-9.42-31.11a17.67,17.67,0,0,0,.94-5.62,17.45,17.45,0,0,0-.68-4.8,19.78,19.78,0,0,0-4-7.35A28.31,28.31,0,0,0,717.77,8.8,38.64,38.64,0,0,0,703.13,6a39.72,39.72,0,0,0-11.41,1.64,33.49,33.49,0,0,0-7.37,3.19,25.42,25.42,0,0,0-8.22,7.5,19.45,19.45,0,0,0-2.38,4.84,17.35,17.35,0,0,0-.85,5.38,18.43,18.43,0,0,0,.11,2,97.1,97.1,0,0,1-11.39,6.73,44.67,44.67,0,0,1-6.34,2.59,18.05,18.05,0,0,1-5.15.91,8.62,8.62,0,0,1-1.63-.15h0a17.18,17.18,0,0,0-3.6-.4,12,12,0,0,0-4.83.94,10.54,10.54,0,0,0-3.6,2.58h0a10.73,10.73,0,0,0-2.14,3.45,10.49,10.49,0,0,0-.69,3.75,11.14,11.14,0,0,0,.81,4.14A11.37,11.37,0,0,0,638.32,60a10.77,10.77,0,0,0,2.95,1.49,11,11,0,0,0,3.43.54l.67,0h0a94.53,94.53,0,0,0,18.71-3.09h0c.93-.25,2.07-.5,3.33-.75,2.22-.43,4.85-.85,7.67-1.3,4.24-.68,8.91-1.42,13.4-2.39,2.24-.49,4.44-1,6.53-1.67A45.3,45.3,0,0,0,700,51q1.56.12,3.15.12c1.06,0,2.09,0,3.12-.12.82,2.21,1.54,4.33,2.11,6.25a12.81,12.81,0,0,1,.38,2.24c.09,1,.14,2.17.14,3.53,0,2-.1,4.31-.29,6.91-.32,4.56-.89,9.94-1.56,15.81-1,8.82-2.27,18.76-3.26,28.83S702,134.85,702,144.25c0,4,.13,7.9.45,11.57h0A36.61,36.61,0,0,0,707,170a57.53,57.53,0,0,0,6.84,9.83,83.89,83.89,0,0,0,14.08,12.94,98.93,98.93,0,0,0,15.66,9.43l11.27,22.94-16.33,11.22-15.38-4.27a6.57,6.57,0,0,0-1.7-.23,6.35,6.35,0,0,0-2.68.59,6.28,6.28,0,0,0-2.2,1.68h0l-9.86,11.73a6.37,6.37,0,0,0,.25,8.49,6.39,6.39,0,0,0,4.63,2h40.9a6.36,6.36,0,0,0,4.18-1.57,3.37,3.37,0,0,0,.87-1.15l13.58-29a6.36,6.36,0,0,0,1.55-4.16,6.63,6.63,0,0,0-.08-1v0L771,209.76c.47,0,.94,0,1.4,0a30.64,30.64,0,0,0,12.67-2.46,21.27,21.27,0,0,0,5.29-3.36,54.36,54.36,0,0,0,9.14-9.18c3.15-4.3,3.25-4.56,3.89-6.46" transform="translate(-25.81 -4.01)"/><line class="cls-13" x1="779.48" y1="178.5" x2="779.26" y2="179.01"/><path class="cls-10" d="M861.63,201.62l2.76.21a21.27,21.27,0,0,0-.08,2.36c-.55,35.5-1.18,47-3.24,50.58-1.65,3.08-3.79,3.28-8.05,3.28a50.3,50.3,0,0,1-5.37-.2,21.6,21.6,0,0,0-1.34-6.37c3.39.31,6.55.42,7.82.42a2.29,2.29,0,0,0,2.44-1.34c1.42-2.46,2.06-12.93,2.53-42.48h-11c-.94,19.7-3.47,38.27-11,50.38A18.31,18.31,0,0,0,833,254c9.32-14.47,10.27-41,10.66-67.21h-10v-6.56h14.93V163.25l6.79.51c-.08.72-.47,1.23-1.58,1.44v15h15.48v6.56H848.76c-.08,4.93-.16,10-.32,14.88ZM906.71,189h-5.84c-2.13,17-5.45,31.19-10.82,42.68,4.5,9.24,10.11,16.42,17.3,20.83a24,24,0,0,0-3.71,5.95c-6.87-4.72-12.4-11.8-16.74-20.52A57.86,57.86,0,0,1,867,258.56a31.89,31.89,0,0,0-2.85-5.84,51.23,51.23,0,0,0,19.9-21.14A155,155,0,0,1,875.68,201a83.29,83.29,0,0,1-5.45,12.82,32.63,32.63,0,0,0-4.18-4.31c5.84-10.36,10.19-28.42,12.63-46.48l6.79,2c-.15.72-.71,1.13-1.73,1.13-.79,5.54-1.82,11.08-3,16.42h26Zm-27.47,0c-.16.51-.24,1-.4,1.54,1.82,12.62,4.5,24.42,8.29,34.37,4.11-9.85,6.71-21.85,8.45-35.91Z" transform="translate(-25.81 -4.01)"/><path class="cls-10" d="M940.35,180.38v5.75H912.16v-5.75Zm-2,41.86v30.17H920.21v4.82h-4.58v-35Zm-.08-27.9V200H915.71v-5.64Zm-22.59,19.59v-5.64H938.3v5.64ZM938,166.74v5.64H916.11v-5.64Zm-4.26,61.35H920.21v18.47h13.51ZM985,223.58H969c4.35,9.54,11.22,19.29,17.22,24.21a28.14,28.14,0,0,0-3.71,5.34c-5.77-5.65-12.32-15.7-16.74-25.65v30.78h-5.14V228.19c-4.66,10.47-11.37,20-18,25.35a32.38,32.38,0,0,0-3.55-5.34c7-4.72,14.21-14.57,18.63-24.62H941.61v-6.26h19v-9.65H944.69V167.46H982v40.21H965.78v9.65H985ZM949.59,173.2v11.49H960.8V173.2Zm0,17.14v11.59H960.8V190.34Zm27.48-5.65V173.2H965.54v11.49Zm0,17.24V190.34H965.54v11.59Z" transform="translate(-25.81 -4.01)"/><path class="cls-10" d="M1002.17,211.27a128,128,0,0,1-9.08,12.31c-.63-1.34-2.05-4.31-2.92-5.75,6.79-7.49,14.77-20,19.82-31.91l5.84,3.18a1.47,1.47,0,0,1-1.73.82c-2,4.21-4.27,8.62-6.71,12.83l1.42.62a2,2,0,0,1-1.58,1.33v53.66h-5.06Zm11.3-45.15a1.45,1.45,0,0,1-1.66.82A135.16,135.16,0,0,1,994,191.46a38.72,38.72,0,0,0-3.08-5.13A94.89,94.89,0,0,0,1007.46,163Zm39.79,51.81,3.64,2.26a2.55,2.55,0,0,1-.79.93,57,57,0,0,1-13.51,21,62.25,62.25,0,0,0,22.75,10.46,25.08,25.08,0,0,0-3.24,5.95,64.41,64.41,0,0,1-23.85-12.62,68.46,68.46,0,0,1-24.16,12.62,39,39,0,0,0-2.69-5.95,63,63,0,0,0,22.51-10.67,61.09,61.09,0,0,1-10.11-13.54,79.18,79.18,0,0,1-9.63,9.54,30.36,30.36,0,0,0-3.32-4.82,79.47,79.47,0,0,0,19.9-23.91l-16.35.72a1.63,1.63,0,0,1-1.18,1.44l-1.74-7.8,12.32-.31c1.82-1.84,3.63-3.79,5.53-5.95a118.9,118.9,0,0,0-15.4-17.54l3.32-4.41c1.5,1.33,3.08,2.87,4.73,4.51a118.57,118.57,0,0,0,10.35-16.93l5.68,3.9a1.73,1.73,0,0,1-1.73.82,158.81,158.81,0,0,1-10.9,15.8,102.36,102.36,0,0,1,7.74,9.34,239.7,239.7,0,0,0,15.71-21.55l5.77,4a1.71,1.71,0,0,1-1.82.72,273.41,273.41,0,0,1-21.87,27.09c7.34-.21,15.4-.41,23.37-.72-2-3.39-4.26-6.67-6.4-9.54l4.11-3.08c5.21,6.77,11.06,16,13.66,22.16l-4.42,3.49a64.18,64.18,0,0,0-3.71-7.49c-6.71.31-13.66.72-20.22,1l.79.41a1.5,1.5,0,0,1-1.73.82,75.73,75.73,0,0,1-4.82,8.1h20.77Zm-25.66,5.85-.47.62a51.93,51.93,0,0,0,11,14,47.51,47.51,0,0,0,11-14.67Z" transform="translate(-25.81 -4.01)"/><path class="cls-10" d="M1136.81,206.24h-26.06l1.34.51a1.64,1.64,0,0,1-1.58,1.23c-2,18.57-8.53,37-24.4,47.4a40.34,40.34,0,0,0-4.26-5c15.55-10.06,21-25.65,22.82-44.12H1074.5v-6.88h62.31Zm-11.61-28h-43.83v-6.88h43.83Zm1-15.08a78.28,78.28,0,0,1,8.69,16.21l-3.16,2.77a71.88,71.88,0,0,0-8.61-16.21Zm9.32-3.49a85.14,85.14,0,0,1,8.92,16.11l-3.23,2.56a79.41,79.41,0,0,0-8.69-16Z" transform="translate(-25.81 -4.01)"/><path class="cls-10" d="M1213.08,172.48a1.62,1.62,0,0,1-1.5.82,2.37,2.37,0,0,1-.79-.1,215.11,215.11,0,0,1-22.5,24.52c.63.31,1.58.93,1.89,1.13a2.07,2.07,0,0,1-1.74,1.34v55.09h-5.76V202.54a222.41,222.41,0,0,1-30.09,22.88,37.86,37.86,0,0,0-3.31-5.64c21.56-12.93,45.17-34.88,57.88-53Z" transform="translate(-25.81 -4.01)"/><path class="cls-10" d="M1292.75,233.32h-27.4c7.35,7.91,18.87,14.47,29.3,17.45a29.55,29.55,0,0,0-3.56,6c-11-4-23.13-12.21-30.87-22v23.5h-5.29v-23c-7.74,9.33-19.9,17.13-30.64,21.13a27.78,27.78,0,0,0-3.47-5.85c10.26-3.07,21.63-9.64,29-17.34h-26.93v-5.95h32.06v-8.31h-24.48v-5.54h24.48v-8.21h-28.51v-5.74h18a58.28,58.28,0,0,0-4.11-10.88l3.08-.82h-20.22v-6.05h13.27a86.82,86.82,0,0,0-6.63-15.6l4.5-2.05a73.15,73.15,0,0,1,7,15.6l-4.19,2h10.35V162.94l6.71.51a1.86,1.86,0,0,1-1.74,1.75v16.62h10.27V162.94l6.87.51c-.08,1-.79,1.54-1.82,1.75v16.62h10c-1-.51-2.21-1.13-2.92-1.44a107.77,107.77,0,0,0,6.47-16l6.24,2.77c-.16.61-.79.92-1.66.92-1.66,4-4.18,9.65-6.39,13.75h13v6.05h-17.85l2.29.93a1.41,1.41,0,0,1-1.66.92c-1.1,2.77-2.84,6.77-4.42,9.85h18.71v5.74h-29.29v8.21h25.43v5.54h-25.43v8.31h32.53ZM1265.67,199a104.78,104.78,0,0,0,4.42-11.08h-24.56a55.8,55.8,0,0,1,4.35,11l-2.45.72h19.5Z" transform="translate(-25.81 -4.01)"/><path class="cls-10" d="M1372.26,180.28h-6.63a60,60,0,0,1-9.71,19.8,47.2,47.2,0,0,0,17.69,11.08,28.53,28.53,0,0,0-3.32,5.85,50.47,50.47,0,0,1-18-12.52,56.52,56.52,0,0,1-18.72,13.34,49.3,49.3,0,0,0-2.44-4.51,93.88,93.88,0,0,1-4,12.31l-3.79-2.46a142.73,142.73,0,0,0,4.65-17.34h-8.29v44.32c0,7.49-2.6,7.9-12.31,7.9a29.61,29.61,0,0,0-1.74-6.46c2,.1,4,.2,5.53.2,3.15,0,3.47,0,3.47-1.64V214.24c-3.16,10.57-7.58,21-12.16,27.09a35.72,35.72,0,0,0-2.84-6.26c5-6.36,10.18-18.16,13.18-29.24h-12.55v-6.16h22.11c-4-4.82-11.69-11.08-18.16-14.88l3.31-4.41c2.53,1.44,5.21,3.18,7.82,5a61.1,61.1,0,0,0,9.16-11.08h-23.29v-6.05h27.4l.94-.31,4,3.18a1.85,1.85,0,0,1-1.1.92,76.32,76.32,0,0,1-13,16.42,54.27,54.27,0,0,1,6.87,6.56l-3.24,4.62h8.06l2.84.21c0,1.33-2,9.64-2.53,12.1a50.68,50.68,0,0,0,17.14-11.79,70.15,70.15,0,0,1-8.06-13.75,67.37,67.37,0,0,1-6,9,36.17,36.17,0,0,0-4.19-4.11c5.61-6.36,10.74-17.24,13.59-28.42l6.47,2.46a1.38,1.38,0,0,1-1.66,1,74.85,74.85,0,0,1-2.6,7.69h26.13ZM1366,223l3.08.82a6.06,6.06,0,0,1-.32,2.05c-1.42,19.19-2.84,26.78-5,29.66-1.74,2.25-3.48,2.66-8.14,2.66a55.47,55.47,0,0,1-5.6-.2,20.09,20.09,0,0,0-1.5-6.47,77.43,77.43,0,0,0,8.13.52,3.1,3.1,0,0,0,2.76-1c1.51-1.95,2.69-7.8,3.8-21.85h-12.88c-2.68,12-7.89,23-19.74,29.44a19.36,19.36,0,0,0-3.16-5.13c10-5.13,14.93-14.05,17.53-24.31h-12.23v-6h13.42c.63-3.59,1-7.39,1.34-11.08l6.79.82c-.16.82-.71,1.23-1.66,1.43-.31,3-.63,5.85-1.1,8.83h13.34Zm-22.35-42.68-.31.72a56.44,56.44,0,0,0,8.84,15,52.84,52.84,0,0,0,8-15.7Z" transform="translate(-25.81 -4.01)"/><path class="cls-10" d="M1438.67,202.75l3.95,3a2,2,0,0,1-1.11,1,73.63,73.63,0,0,1-20.92,32.53c8.76,6.36,19.5,10.56,31.82,12.82a32.68,32.68,0,0,0-3.4,6.57c-13.1-2.67-24.4-7.7-33.63-15.29-9.88,7.28-21.4,12-33.56,15a27.56,27.56,0,0,0-2.93-6.57c11.53-2.46,22.43-6.46,31.75-12.62-7.35-7.18-13.11-16.31-17.3-27.29l4.5-2.15h-12.39V203h27.32V186.13H1381.1v-6.77h31.67V163l7,.62c-.08.72-.56,1.23-1.58,1.44v14.26h32v6.77h-32V203h19.42Zm-40.35,7a63.31,63.31,0,0,0,17.45,25.65,61.44,61.44,0,0,0,18.56-25.65Z" transform="translate(-25.81 -4.01)"/><path class="cls-10" d="M1481.78,215.16l-7.19,3.39v31.29c0,8.11-3.08,8.62-13.66,8.62a27,27,0,0,0-1.65-6.67c1.73.11,3.31.11,4.73.11,5.53,0,5.53-.11,5.53-2.16V220.91l-9,4.1a1.8,1.8,0,0,1-1,1.54l-2-7.9c3.31-1.23,7.5-2.87,12-4.72V191h-11.21v-6.46h11.21V163l6.63.52c-.08.82-.47,1.23-1.58,1.43v19.5h8.93V191h-8.93v20.93l6.48-2.67Zm39.56,6.26,3,1.85a1.63,1.63,0,0,1-.63,1c-2.29,8.61-5.76,15.39-10.27,20.62a49.09,49.09,0,0,0,17.93,7.59,27.27,27.27,0,0,0-3.24,5.85,51.94,51.94,0,0,1-18.71-9.34,46.64,46.64,0,0,1-16.43,9.34,22.09,22.09,0,0,0-3-5.23,45.6,45.6,0,0,0,15.32-7.8,46.73,46.73,0,0,1-10.11-14.47l4.27-1.84a39.33,39.33,0,0,0,9.71,12.72,39,39,0,0,0,8.53-14.57h-22c-3.08,12.82-7.5,23.49-13.82,30.78a28,28,0,0,0-3.95-3.9c7.9-8.62,12.71-23.09,15.48-40.83h-10.58v-5.85h11.45c.39-3,.71-6,1-9h-11.61v-5.75h30l-1-.51a112.52,112.52,0,0,0,7.74-17.85l5.85,2.77c-.16.61-.72.92-1.58.92a144.37,144.37,0,0,1-7.27,14.67h9v5.75h-26.13c-.32,3.08-.63,6-1,9h30.87v5.85h-31.74c-.47,2.87-1,5.64-1.5,8.41h23.45Zm5.05-52.84a1.49,1.49,0,0,1-.79.21,1.77,1.77,0,0,1-.71-.1c-9.79,2.87-27.16,5-41.45,5.95a22,22,0,0,0-1.27-5.34c14.06-1,31.27-3.18,40.59-6.26Zm-35.61,7.7a58,58,0,0,1,4.19,13.34l-4.35,1.95a64.65,64.65,0,0,0-3.94-13.65Zm14.61-1.44a67.36,67.36,0,0,1,2.53,14L1503.5,190a80.5,80.5,0,0,0-2.29-14.26Z" transform="translate(-25.81 -4.01)"/><g id="text-4" data-name="text"><path class="cls-14" d="M3619.12,318a3.19,3.19,0,0,1,3.3,3.3v36c0,3.3,1.39,5.61,3.3,5.61h1.65a3,3,0,0,1,3,3.3c0,1.92-1.85,3.3-4.49,3.3h-.13c-5.8,0-9.9-5.08-9.9-12.21v-36A3.19,3.19,0,0,1,3619.12,318Z" transform="translate(-25.81 -4.01)"/><path class="cls-14" d="M3673.31,351.48a17.91,17.91,0,0,1-18.22,18.34c-10.29,0-18.08-7.91-18.15-18.34V321.39a3.37,3.37,0,1,1,6.73,0V339.2a16.3,16.3,0,0,1,12.74-6C3666.05,333.2,3673.31,341.05,3673.31,351.48Zm-6.47,0c0-7.06-5.08-12.34-11.75-12.34s-11.68,5.28-11.68,12.34,5,12.41,11.68,12.41S3666.84,358.54,3666.84,351.48Z" transform="translate(-25.81 -4.01)"/><path class="cls-14" d="M3717.85,351.54v14.72a3.37,3.37,0,1,1-6.73,0v-2.44a16.23,16.23,0,0,1-12.73,6c-9.64,0-16.9-7.85-16.9-18.28a17.91,17.91,0,0,1,18.22-18.34C3710,333.2,3717.79,341.12,3717.85,351.54Zm-6.46,0c0-7.06-5-12.4-11.68-12.4s-11.75,5.34-11.75,12.4,5.08,12.35,11.75,12.35S3711.39,358.61,3711.39,351.54Z" transform="translate(-25.81 -4.01)"/><path class="cls-14" d="M3746.1,366.26c0,1.92-1.65,3.3-3.89,3.3H3741c-6.6,0-11.61-5.48-11.61-12.8v-16.3h-3a2.85,2.85,0,1,1,0-5.68h3v-9.5a3.3,3.3,0,0,1,6.6,0v9.5h5.6a2.85,2.85,0,1,1,0,5.68H3736v16.3c0,3.56,2.17,6.2,5,6.2h2.24A3,3,0,0,1,3746.1,366.26Z" transform="translate(-25.81 -4.01)"/><path class="cls-14" d="M3779.43,337.42c-.46,1.85-1.91,2.38-3.63,2-8.45-1.65-14.85,1.52-14.85,7.59v19.27a3.3,3.3,0,1,1-6.6,0v-29.5a3,3,0,0,1,3.3-3.3c2.18,0,3.3,1.12,3.3,3.3V338a14.69,14.69,0,0,1,11.09-4.95C3777.32,333.07,3780,335.05,3779.43,337.42Z" transform="translate(-25.81 -4.01)"/><path class="cls-14" d="M3818.3,351.54c0,10.7-7.52,18.28-18.14,18.28s-18.22-7.58-18.22-18.28,7.53-18.34,18.22-18.34S3818.24,340.79,3818.3,351.54Zm-29.89,0c0,7.26,4.88,12.35,11.75,12.35s11.68-5.09,11.68-12.35-4.82-12.4-11.68-12.4S3788.41,344.29,3788.41,351.54Z" transform="translate(-25.81 -4.01)"/><path class="cls-14" d="M3854.08,338.41c1.18,1.45,1.12,3.1-.27,4.16a4.14,4.14,0,0,1-4.95-.73c-2.24-2.11-4.62-2.77-8-2.77-3.9,0-6.93,1.39-6.93,3.9s1.38,3.89,8.51,5.34c9.9,2,13.2,5.48,13.2,10.69,0,6-4.88,10.82-14.19,10.82-6.14,0-11.75-2.11-14.65-5a3.06,3.06,0,0,1,.46-4.62,3.35,3.35,0,0,1,4.82.26c1.52,1.65,5.08,3.44,9.11,3.44,5.08,0,7.85-1.85,7.92-4.49s-2.12-4.56-9-5.81c-8.91-1.72-12.67-5.35-12.67-10.43,0-6.73,6.8-10,13.53-10C3846.82,333.2,3851.44,335.18,3854.08,338.41Z" transform="translate(-25.81 -4.01)"/><path class="cls-14" d="M3889.91,338.41c1.19,1.45,1.13,3.1-.26,4.16a4.14,4.14,0,0,1-5-.73c-2.24-2.11-4.62-2.77-8-2.77-3.9,0-6.93,1.39-6.93,3.9s1.38,3.89,8.51,5.34c9.9,2,13.2,5.48,13.2,10.69,0,6-4.89,10.82-14.19,10.82-6.14,0-11.75-2.11-14.65-5a3.06,3.06,0,0,1,.46-4.62,3.35,3.35,0,0,1,4.82.26c1.52,1.65,5.08,3.44,9.11,3.44,5.08,0,7.85-1.85,7.91-4.49s-2.11-4.56-9-5.81c-8.91-1.72-12.67-5.35-12.67-10.43,0-6.73,6.8-10,13.53-10C3882.66,333.2,3887.27,335.18,3889.91,338.41Z" transform="translate(-25.81 -4.01)"/><path class="cls-14" d="M3610,364.74l-18.61-44.41a3.24,3.24,0,0,0-3.24-2.31,3.33,3.33,0,0,0-3.23,2.31l-18.55,44.28a3.43,3.43,0,0,0,3,4.95,3.46,3.46,0,0,0,3.17-2.11l3.76-9.24h0l2.32-5.68h0l2-5v0h0l7.58-18.5,7.57,18.82h0l4.17,10.35h0l1.75,4.38h0l1.95,4.86a3.41,3.41,0,0,0,3.17,2.11A3.37,3.37,0,0,0,3610,364.74Z" transform="translate(-25.81 -4.01)"/><circle class="cls-14" cx="3560.65" cy="341.97" r="3.63"/></g><polygon class="cls-14" points="3551.3 345.24 3540.41 345.24 3551.3 339.54 3551.3 345.24"/></svg>