<svg id="Layer_1" data-name="Layer 1" xmlns="http://www.w3.org/2000/svg" viewBox="0 0 325.5 73.81"><defs><style>.cls-1{fill:#00695c;fill:#fff;}</style></defs><g id="text"><path class="cls-1" d="M53.13,0a3.19,3.19,0,0,1,3.3,3.3v36c0,3.3,1.39,5.61,3.3,5.61h1.65a3,3,0,0,1,3,3.3c0,1.92-1.85,3.3-4.49,3.3h-.13c-5.81,0-9.9-5.08-9.9-12.21V3.3A3.19,3.19,0,0,1,53.13,0Z"/><path class="cls-1" d="M107.31,33.46A17.91,17.91,0,0,1,89.1,51.81C78.8,51.81,71,43.89,71,33.46V3.37a3.37,3.37,0,1,1,6.73,0V21.18a16.28,16.28,0,0,1,12.74-6C100.05,15.18,107.31,23,107.31,33.46Zm-6.47,0c0-7.06-5.08-12.34-11.74-12.34S77.42,26.4,77.42,33.46s5,12.41,11.68,12.41S100.84,40.52,100.84,33.46Z"/><path class="cls-1" d="M151.86,33.53V48.24a3.37,3.37,0,1,1-6.73,0V45.8a16.26,16.26,0,0,1-12.74,6c-9.63,0-16.89-7.86-16.89-18.28a17.91,17.91,0,0,1,18.21-18.35C144,15.18,151.8,23.1,151.86,33.53Zm-6.46,0c0-7.07-5-12.41-11.69-12.41S122,26.46,122,33.53s5.08,12.34,11.74,12.34S145.4,40.59,145.4,33.53Z"/><path class="cls-1" d="M180.11,48.24c0,1.92-1.65,3.3-3.89,3.3H175c-6.6,0-11.62-5.48-11.62-12.8V22.44h-3a2.85,2.85,0,1,1,0-5.68h3V7.26a3.3,3.3,0,1,1,6.6,0v9.5h5.61a2.85,2.85,0,1,1,0,5.68H170v16.3c0,3.56,2.18,6.2,5,6.2h2.24A3,3,0,0,1,180.11,48.24Z"/><path class="cls-1" d="M213.44,19.4c-.46,1.85-1.92,2.38-3.63,2C201.36,19.73,195,22.9,195,29V48.24a3.3,3.3,0,0,1-6.6,0V18.74a3,3,0,0,1,3.3-3.3c2.18,0,3.3,1.13,3.3,3.3V20a14.69,14.69,0,0,1,11.09-4.95C211.33,15.05,214,17,213.44,19.4Z"/><path class="cls-1" d="M252.31,33.53c0,10.69-7.52,18.28-18.15,18.28S216,44.22,216,33.53s7.52-18.35,18.21-18.35S252.25,22.77,252.31,33.53Zm-29.89,0c0,7.26,4.88,12.34,11.74,12.34s11.68-5.08,11.68-12.34S241,21.12,234.16,21.12,222.42,26.27,222.42,33.53Z"/><path class="cls-1" d="M288.08,20.39c1.19,1.45,1.13,3.1-.26,4.16a4.14,4.14,0,0,1-4.95-.73c-2.24-2.11-4.62-2.77-8-2.77-3.9,0-6.93,1.39-6.93,3.9s1.38,3.89,8.51,5.34c9.9,2,13.2,5.48,13.2,10.69,0,6-4.89,10.83-14.19,10.83-6.14,0-11.75-2.12-14.65-5a3.06,3.06,0,0,1,.46-4.62,3.37,3.37,0,0,1,4.82.26c1.52,1.65,5.08,3.44,9.11,3.44,5.08,0,7.85-1.85,7.91-4.49s-2.11-4.55-9-5.81c-8.91-1.71-12.67-5.34-12.67-10.43,0-6.73,6.8-10,13.53-10C280.83,15.18,285.44,17.16,288.08,20.39Z"/><path class="cls-1" d="M323.92,20.39c1.19,1.45,1.12,3.1-.26,4.16a4.14,4.14,0,0,1-5-.73c-2.25-2.11-4.62-2.77-8-2.77-3.89,0-6.93,1.39-6.93,3.9s1.39,3.89,8.52,5.34c9.9,2,13.19,5.48,13.19,10.69,0,6-4.88,10.83-14.18,10.83-6.14,0-11.75-2.12-14.65-5a3.06,3.06,0,0,1,.46-4.62,3.37,3.37,0,0,1,4.82.26c1.51,1.65,5.08,3.44,9.1,3.44,5.08,0,7.86-1.85,7.92-4.49s-2.11-4.55-9-5.81c-8.91-1.71-12.67-5.34-12.67-10.43,0-6.73,6.79-10,13.52-10C316.66,15.18,321.28,17.16,323.92,20.39Z"/><path class="cls-1" d="M44,46.72,25.34,2.31A3.22,3.22,0,0,0,22.11,0a3.33,3.33,0,0,0-3.23,2.31L.33,46.59a3.43,3.43,0,0,0,3,4.95,3.46,3.46,0,0,0,3.17-2.11l3.76-9.24h0l2.32-5.67h0l2-5v0h0L22.24,11,29.8,29.85h0L34,40.19h0l1.75,4.38h0l1.94,4.86a3.43,3.43,0,0,0,3.17,2.11A3.36,3.36,0,0,0,44,46.72Z"/><circle class="cls-1" cx="20.47" cy="27.97" r="3.63"/></g><polygon class="cls-1" points="11.12 31.23 0.24 31.23 11.12 25.53 11.12 31.23"/><path class="cls-1" d="M50.39,64.07c0-2.06-1-3.17-3.12-3.17a3.68,3.68,0,0,0-4,3.64V70c0,.55-.56.83-1.12.83S41,70.59,41,70V56.54c0-.56.58-.83,1.14-.83s1.15.27,1.15.83v4.34c.58-1.07,2.31-1.83,4-1.83,3.63,0,5.36,1.81,5.36,5v6c0,.55-.56.83-1.14.83s-1.15-.28-1.15-.83Z"/><path class="cls-1" d="M64.23,65c0-3.45,2.7-6,6.76-6s6.76,2.59,6.76,6-2.7,6-6.76,6S64.23,68.48,64.23,65Zm11.23,0A4.48,4.48,0,1,0,71,69.21,4.24,4.24,0,0,0,75.46,65Z"/><path class="cls-1" d="M98.5,69.25c-.56,1-2.2,1.74-4,1.74-3.43,0-5.19-1.72-5.19-4.85V60c0-.54.57-.83,1.15-.83s1.15.29,1.15.83V66.1a2.7,2.7,0,0,0,3,3c2.34,0,3.84-1.28,3.84-3.41V60c0-.54.56-.83,1.13-.83s1.16.29,1.16.85V70c0,.57-.58.83-1.14.83s-1.06-.24-1.06-.73Z"/><path class="cls-1" d="M115.08,65.71v4.35c0,.53-.56.81-1.14.81s-1.15-.28-1.15-.81V56.52c0-.54.58-.82,1.15-.82s1.14.28,1.14.82v6.87l6.49-4a1.42,1.42,0,0,1,.79-.24,1.12,1.12,0,0,1,1.21.94.91.91,0,0,1-.5.75l-6.15,3.76,7,4.67a.86.86,0,0,1,.42.68c0,.49-.65.94-1.28.94a1.27,1.27,0,0,1-.76-.24Z"/><path class="cls-1" d="M146.43,63.54c0,.6,0,1.26,0,1.92a11.51,11.51,0,0,0,.49,4.15.91.91,0,0,1,.09.4c0,.54-.58.86-1.16.86s-1.21-.2-1.31-1.52a.47.47,0,0,1,0-.15A6.38,6.38,0,0,1,139.79,71c-2.94,0-5.21-.83-5.21-3.47a3.3,3.3,0,0,1,2.6-3.1c3.08-1,6.85-.58,6.85-1.9v-.09c-.13-1-1.17-1.63-3.12-1.63h-.36a4,4,0,0,0-3.39,1.76,1.19,1.19,0,0,1-1,.45c-.6,0-1.19-.38-1.19-.9,0-.8,1.94-3,5.57-3.06h.34c3.88,0,5.52,1.55,5.52,4.38Zm-2.15,2.15c0-.55,0-1.15,0-1.15-1.14.83-3.88.66-6.15,1.43a1.67,1.67,0,0,0-1.33,1.53c0,1.49,1.58,1.73,3,1.73h.11c1.86,0,4.4-.94,4.4-3.17Z"/><path class="cls-1" d="M170.71,68.63c0,3.68-2.15,5.18-6.24,5.18a12.11,12.11,0,0,1-5.19-1,1,1,0,0,1-.67-.91,1,1,0,0,1,1-.92,1.55,1.55,0,0,1,.81.22,8.82,8.82,0,0,0,4,.85c3,0,4.2-1.13,4.2-3.75a5.36,5.36,0,0,1-4.56,1.9c-3.48,0-6.11-2.18-6.11-5.56s2.7-5.58,6.11-5.58a5.31,5.31,0,0,1,4.45,1.85V60c0-.53.54-.8,1.07-.8s1.08.27,1.08.8Zm-2.2-3.88a3.82,3.82,0,0,0-4.15-3.87,3.84,3.84,0,1,0,0,7.66C166.83,68.54,168.51,67.06,168.51,64.75Z"/><path class="cls-1" d="M182.31,65c0-3.45,2.69-6,6.75-6s6.76,2.59,6.76,6-2.69,6-6.76,6S182.31,68.48,182.31,65Zm11.22,0a4.47,4.47,0,1,0-4.47,4.18A4.23,4.23,0,0,0,193.53,65Z"/><path class="cls-1" d="M207.71,65.88a1,1,0,0,1-1-1,1,1,0,0,1,1-1h5.84a.94.94,0,0,1,1,1,1,1,0,0,1-1,1Z"/><path class="cls-1" d="M236,69.1A5,5,0,0,1,231.58,71a6,6,0,1,1,0-11.94,5,5,0,0,1,4.29,1.79V56.52c0-.54.59-.82,1.15-.82s1.14.28,1.14.82v13.6c0,.51-.56.75-1.12.75s-1.08-.24-1.08-.69ZM236,65a4.11,4.11,0,0,0-8.21,0A4.11,4.11,0,0,0,236,65Z"/><path class="cls-1" d="M261.59,63.54c0,.6,0,1.26,0,1.92a11.29,11.29,0,0,0,.49,4.15.91.91,0,0,1,.09.4c0,.54-.58.86-1.17.86s-1.21-.2-1.3-1.52a.47.47,0,0,1,0-.15A6.4,6.4,0,0,1,254.94,71c-2.94,0-5.21-.83-5.21-3.47a3.31,3.31,0,0,1,2.61-3.1c3.07-1,6.84-.58,6.84-1.9v-.09c-.13-1-1.16-1.63-3.11-1.63h-.36a4,4,0,0,0-3.4,1.76,1.16,1.16,0,0,1-1,.45c-.61,0-1.19-.38-1.19-.9,0-.8,1.93-3,5.57-3.06h.34c3.88,0,5.52,1.55,5.52,4.38Zm-2.16,2.15c0-.55,0-1.15,0-1.15-1.14.83-3.88.66-6.15,1.43A1.66,1.66,0,0,0,252,67.5c0,1.49,1.57,1.73,2.94,1.73H255c1.87,0,4.4-.94,4.4-3.17Z"/><path class="cls-1" d="M277.74,70.12l-5.32-9.62a.75.75,0,0,1-.11-.41c0-.53.65-.89,1.25-.89a1.13,1.13,0,0,1,1,.55l4.26,8,3.37-8.07a1,1,0,0,1,1-.55c.62,0,1.3.36,1.3.93a1.09,1.09,0,0,1-.07.34l-4.94,11.12A3.5,3.5,0,0,1,276,73.72a10.21,10.21,0,0,1-2.37-.32.91.91,0,0,1-.77-.89,1,1,0,0,1,1.08-1,1.62,1.62,0,0,1,.4.06,6.91,6.91,0,0,0,1.62.26,1.5,1.5,0,0,0,1.53-1Z"/></svg>